<svg width="149" height="159" viewBox="0 0 149 159" fill="none" xmlns="http://www.w3.org/2000/svg">
<path d="M131.77 59.5446L40.85 8.82062C37.2166 6.79577 33.095 5.7299 28.8995 5.72998C24.704 5.73006 20.5824 6.79609 16.9491 8.82109C13.3158 10.8461 10.2988 13.7586 8.20123 17.2659C6.10371 20.7731 4.99965 24.7516 5 28.8013V130.153C4.99965 134.202 6.10371 138.181 8.20123 141.688C10.2988 145.195 13.3158 148.108 16.9491 150.133C20.5824 152.158 24.704 153.224 28.8995 153.224C33.095 153.224 37.2166 152.158 40.85 150.133L131.79 99.448C135.412 97.4198 138.417 94.5087 140.506 91.006C142.595 87.5033 143.694 83.5324 143.692 79.4909C143.69 75.4493 142.587 71.4793 140.495 67.9786C138.402 64.4778 135.394 61.5693 131.77 59.5446Z" stroke="#ECECEC" stroke-width="10" stroke-miterlimit="10"/>
</svg>
