<svg width="12" height="13" viewBox="0 0 12 13" fill="none" xmlns="http://www.w3.org/2000/svg">
  <path
    d="M4.6875 3.5C6.32812 3.5 7.89844 2.86719 9.07031 1.69531L9.96094 0.804688C10.4297 0.335938 11.25 0.664062 11.25 1.34375V4.71875C11.6719 4.92969 12 5.49219 12 6.125C12 6.78125 11.6719 7.34375 11.25 7.55469V10.9297C11.25 11.6094 10.4297 11.9375 9.96094 11.4688L9.07031 10.5781C7.94531 9.45312 6.44531 8.79688 4.875 8.77344V11.1875C4.875 11.9141 4.26562 12.5 3.5625 12.5H2.8125C2.08594 12.5 1.5 11.9141 1.5 11.1875V8.75C0.65625 8.75 0 8.09375 0 7.25V5C0 4.17969 0.65625 3.5 1.5 3.5H4.6875ZM10.125 2.23438L9.86719 2.49219C8.53125 3.82812 6.75 4.57812 4.875 4.625V7.64844C6.75 7.67188 8.53125 8.44531 9.86719 9.78125L10.125 10.0391V2.23438ZM2.625 11.1875C2.625 11.3047 2.69531 11.375 2.8125 11.375H3.5625C3.65625 11.375 3.75 11.3047 3.75 11.1875V8.75H2.625V11.1875ZM1.125 5V7.25C1.125 7.46094 1.28906 7.625 1.5 7.625H3.75V4.625H1.5C1.28906 4.625 1.125 4.8125 1.125 5Z"
    fill="#59595B"/>
</svg>
