<svg width="12" height="13" viewBox="0 0 12 13" fill="none" xmlns="http://www.w3.org/2000/svg">
  <path
    d="M12 6.5C12 9.82812 9.30469 12.5 6 12.5C2.67188 12.5 0 9.82812 0 6.5C0 5.25781 0.375 4.10938 1.03125 3.14844C1.19531 2.89062 1.54688 2.82031 1.80469 2.98438C2.0625 3.17188 2.13281 3.52344 1.94531 3.78125C1.42969 4.55469 1.10156 5.49219 1.10156 6.5C1.10156 9.19531 3.30469 11.375 5.97656 11.375C8.67188 11.375 10.875 9.19531 10.875 6.5C10.875 4.01562 8.97656 1.95312 6.5625 1.67188V2.9375C6.5625 3.26562 6.30469 3.5 5.97656 3.5C5.67188 3.5 5.41406 3.26562 5.41406 2.9375V1.0625C5.41406 0.757812 5.67188 0.5 5.97656 0.5C9.30469 0.5 12 3.19531 12 6.5ZM6.375 6.10156C6.60938 6.33594 6.60938 6.6875 6.375 6.89844C6.16406 7.13281 5.8125 7.13281 5.60156 6.89844L3.72656 5.02344C3.49219 4.8125 3.49219 4.46094 3.72656 4.22656C3.9375 4.01562 4.28906 4.01562 4.5 4.22656L6.375 6.10156Z"
    fill="#59595B"/>
</svg>
