<svg width="170" height="26" viewBox="0 0 170 26" fill="none" xmlns="http://www.w3.org/2000/svg">
<path d="M15.3795 5.50506C14.4776 5.3601 13.5883 5.25696 12.7118 5.19554C11.8352 5.13411 10.9371 5.10454 10.0173 5.107C8.47163 5.08868 6.9276 5.21208 5.40596 5.47554C4.27543 5.66127 3.20907 6.11173 2.29992 6.78758C1.46 7.47308 0.850856 8.38563 0.550607 9.40804C0.151507 10.7942 -0.0321381 12.2298 0.00564939 13.6682C-0.0341436 15.1274 0.136437 16.5851 0.512505 17.9988C0.781342 19.0089 1.35913 19.9167 2.17031 20.6041C3.05981 21.2762 4.10705 21.7259 5.21917 21.9128C6.77131 22.1879 8.34818 22.3114 9.92589 22.2813C10.8507 22.2813 11.7539 22.2506 12.6356 22.1892C13.52 22.1293 14.3997 22.0146 15.269 21.8462C16.0312 21.7467 16.5495 21.5846 16.7744 21.3524C16.8846 21.2449 16.9715 21.1172 17.0297 20.9766C17.088 20.8361 17.1165 20.6857 17.1136 20.5343V19.6975C16.5368 19.8671 15.847 20.0305 15.0441 20.1877C14.2232 20.348 13.3936 20.4638 12.5593 20.5343C11.7056 20.608 10.9434 20.6448 10.2727 20.6448C8.38999 20.6448 6.91511 20.4385 5.84801 20.0258C5.34151 19.8415 4.88048 19.5566 4.49455 19.1897C4.10862 18.8229 3.80633 18.3821 3.6071 17.8955C3.18026 16.8881 2.96686 15.4743 2.96686 13.6537C2.96686 11.8331 3.193 10.4251 3.64524 9.43C3.85297 8.95267 4.15864 8.52114 4.54381 8.16133C4.92899 7.80153 5.38562 7.52104 5.88611 7.33679C7.23382 6.89055 8.65468 6.68699 10.0783 6.73611C10.7795 6.73611 11.5824 6.77289 12.4869 6.8466C13.3719 6.91536 14.2523 7.03099 15.1242 7.19301C15.8007 7.33838 16.4665 7.52685 17.1174 7.75698V6.8466C17.1267 6.69054 17.1031 6.53434 17.0481 6.38736C16.9931 6.24038 16.9077 6.10575 16.7972 5.99165C16.6143 5.79263 16.1341 5.62668 15.3795 5.50506Z" fill="white"/>
<path d="M32.3006 8.63412C31.6144 8.11218 30.8053 7.76262 29.9454 7.61684C28.9396 7.43894 27.9189 7.35268 26.8965 7.35897C25.8551 7.35045 24.8152 7.43672 23.7905 7.61684C22.9262 7.76323 22.1122 8.1126 21.42 8.63412C20.6956 9.22791 20.1659 10.0129 19.8956 10.8932C19.1892 13.4691 19.1892 16.1784 19.8956 18.7543C20.1659 19.6346 20.6956 20.4196 21.42 21.0134C22.1122 21.5349 22.9262 21.8841 23.7905 22.0305C24.8152 22.2106 25.8551 22.2971 26.8965 22.2885C27.9189 22.2948 28.9396 22.2084 29.9454 22.0305C30.8023 21.8863 31.6104 21.5436 32.3006 21.0318C33.0221 20.4431 33.5516 19.6647 33.8251 18.791C34.217 17.5045 34.3946 16.166 34.351 14.8256C34.3935 13.496 34.216 12.1685 33.8251 10.8932C33.5486 10.0157 33.0199 9.23221 32.3006 8.63412ZM31.0925 18.7212C30.9501 19.0964 30.7324 19.4404 30.4517 19.7339C30.1711 20.0274 29.8333 20.2644 29.4576 20.4311C27.7898 21.0112 25.9651 21.0112 24.2974 20.4311C23.5363 20.0918 22.9426 19.4782 22.6434 18.7212C22.2623 17.8698 22.0603 16.5724 22.0603 14.8256C22.0603 13.0787 22.2508 11.7777 22.6434 10.9263C22.9426 10.1693 23.5363 9.55572 24.2974 9.21644C25.9651 8.63627 27.7898 8.63627 29.4576 9.21644C29.8333 9.38308 30.1711 9.61991 30.4517 9.9134C30.7324 10.2069 30.9501 10.5511 31.0925 10.9263C31.4711 11.7765 31.6603 13.0762 31.6603 14.8256C31.6603 16.5749 31.4711 17.8747 31.0925 18.7248V18.7212Z" fill="white"/>
<path d="M66.284 7.97807C65.0549 7.52186 63.7429 7.31135 62.4272 7.35903C60.3413 7.35903 58.7228 7.62672 57.5719 8.16234C56.4638 8.64923 55.5976 9.53717 55.1595 10.6352C54.6658 12.016 54.4372 13.4723 54.4849 14.9325C54.4497 16.1875 54.5777 17.4417 54.866 18.6658C55.043 19.5169 55.4896 20.2934 56.1439 20.8878C56.7981 21.4822 57.6276 21.865 58.517 21.9827C59.7291 22.1939 60.9595 22.2914 62.1909 22.2738C63.4943 22.2738 64.6173 22.2371 65.5599 22.1634C66.3242 22.1273 67.0785 21.9792 67.797 21.7246C68.1356 21.6404 68.435 21.4484 68.6469 21.1794C68.7805 20.9727 68.8518 20.7339 68.8527 20.4902V20.0514C68.5204 20.1842 68.1721 20.2759 67.816 20.3242C67.3282 20.409 66.768 20.4754 66.143 20.5233C65.518 20.5712 64.893 20.6156 64.2794 20.6525C63.6658 20.6893 63.136 20.7075 62.6406 20.7075C61.5297 20.7489 60.4204 20.5939 59.3669 20.2505C58.9705 20.1018 58.612 19.8722 58.316 19.5771C58.02 19.2819 57.7934 18.9283 57.6519 18.5406C57.314 17.7027 57.145 16.4828 57.145 14.8809C57.1037 13.6764 57.2554 12.4731 57.5947 11.3135C57.8428 10.5049 58.4113 9.82398 59.1763 9.41913C60.155 8.98636 61.2266 8.78666 62.3014 8.8368C63.883 8.8368 64.9958 9.17955 65.6323 9.85767C66.2687 10.5358 66.6079 11.6304 66.6308 13.1341L66.6689 14.1918H59.4774C59.3243 14.1746 59.1691 14.1933 59.0251 14.2465C58.8811 14.2998 58.7526 14.3859 58.6504 14.4976C58.495 14.8864 58.4187 15.3006 58.4256 15.7175H69.0394V13.1967C69.0865 12.0571 68.8623 10.9223 68.3839 9.8798C67.9408 9.02407 67.1961 8.34957 66.284 7.97807Z" fill="white"/>
<path d="M76.5814 21.0134C76.3461 21.0555 76.1079 21.0802 75.8687 21.0872C75.6187 21.1162 75.3654 21.0729 75.1409 20.9627C74.9163 20.8525 74.7306 20.6805 74.6073 20.4682C74.3534 19.831 74.2442 19.1483 74.2871 18.4667V3.74717H72.7627C72.5248 3.73636 72.2872 3.77414 72.0653 3.85784C71.9865 3.89173 71.9167 3.94244 71.8612 4.0063C71.8057 4.07016 71.7661 4.14548 71.7451 4.22638C71.6891 4.45821 71.6635 4.69592 71.6689 4.93395V18.85C71.6689 20.1399 71.923 21.0332 72.4312 21.5295C72.9304 22.0234 73.7612 22.2666 74.9159 22.2666C75.4266 22.2801 75.9374 22.2427 76.4404 22.1558C76.7808 22.082 77.0247 22.0343 77.1721 22.0122V20.8806C77.0844 20.9359 76.8824 20.9655 76.5814 21.0134Z" fill="white"/>
<path d="M48.9931 8.30982C48.0022 7.85037 46.629 7.61928 44.8733 7.61682C44.5189 7.61682 44.0806 7.61686 43.5547 7.65371C43.0288 7.69056 42.4876 7.6979 41.935 7.70895C41.5539 7.70895 41.2261 7.7275 40.9212 7.74225V9.21642L41.7673 9.17952C42.2551 9.15373 42.7391 9.13534 43.2155 9.12428C43.6919 9.11322 44.1073 9.10574 44.4579 9.10574C45.3827 9.06673 46.3021 9.26116 47.1257 9.66972C47.8259 10.0741 48.3542 10.7064 48.6158 11.4534C48.9688 12.5253 49.14 13.6454 49.1227 14.7703C49.1227 16.4951 48.9664 17.785 48.6501 18.6474C48.5396 19.0255 48.3439 19.3753 48.077 19.6716C47.8102 19.968 47.4788 20.2035 47.1066 20.3612C46.1314 20.6776 45.1046 20.8187 44.0768 20.7776C43.3093 20.794 42.5423 20.7272 41.7902 20.5786C41.285 20.4913 40.8299 20.2293 40.5097 19.8415C40.1904 19.3604 40.0029 18.8086 39.9647 18.2381C39.8627 17.3079 39.8182 16.3727 39.8313 15.4374V3.73975H37.1978L37.2359 15.1646C37.2108 16.4312 37.2988 17.6977 37.4989 18.9497C37.6012 19.7424 37.9402 20.489 38.4745 21.0983C39.046 21.6299 39.7799 21.9683 40.5668 22.0636C41.7175 22.2385 42.8816 22.3176 44.0463 22.2997C45.1157 22.3049 46.1846 22.2506 47.2476 22.1374C48.1197 22.0575 48.9557 21.7617 49.6753 21.2786C50.416 20.7156 50.9558 19.9423 51.2188 19.0674C51.984 16.2852 51.9458 13.3537 51.1082 10.5911C50.9288 10.0946 50.6495 9.63747 50.2865 9.24593C49.9235 8.85439 49.4839 8.53625 48.9931 8.30982Z" fill="white"/>
<path d="M89.7945 12.7877C89.6931 12.8312 89.6031 12.8961 89.5312 12.9777C89.4593 13.0594 89.4073 13.1556 89.3791 13.2594C89.3072 13.5825 89.2765 13.913 89.2876 14.2433H96.4029C96.4029 14.365 96.4029 14.5419 96.4029 14.7704C96.4213 15.0429 96.4213 15.3162 96.4029 15.5887C96.4343 16.6779 96.2157 17.7603 95.7626 18.758C95.5721 19.1228 95.307 19.4463 94.9834 19.7092C94.6598 19.9721 94.2844 20.169 93.8799 20.2876C92.7522 20.5869 91.5845 20.7211 90.4157 20.6856C89.1132 20.7381 87.8141 20.5217 86.6046 20.0515C86.1381 19.8394 85.7209 19.5382 85.3783 19.1658C85.0357 18.7933 84.7748 18.3575 84.6114 17.8847C84.1724 16.5313 83.9752 15.1154 84.0283 13.6979C84.0283 11.8527 84.2481 10.4265 84.6876 9.41918C84.8824 8.94254 85.174 8.50847 85.5452 8.1426C85.9163 7.77674 86.3595 7.48658 86.8485 7.28909C87.8648 6.87632 89.2457 6.66987 90.9911 6.66987C91.3723 6.66987 91.8372 6.6698 92.405 6.68823C92.9729 6.70665 93.5484 6.73993 94.1925 6.7989C94.8365 6.85786 95.4272 6.92422 96.0179 6.99792C96.6086 7.07163 97.127 7.15638 97.5805 7.2522C97.9185 7.30657 98.2399 7.43241 98.5218 7.62074V6.88365C98.5212 6.692 98.4891 6.50156 98.4266 6.31968C98.3401 6.10863 98.1795 5.93384 97.973 5.8259C97.6289 5.64792 97.2522 5.53646 96.864 5.49784C95.9527 5.31178 95.0275 5.19596 94.0972 5.15143C93.0301 5.09247 91.8715 5.06308 90.6139 5.06308C89.2499 5.04795 87.8877 5.16397 86.5474 5.40949C85.4638 5.59917 84.4401 6.02792 83.5557 6.66249C82.6895 7.34067 82.0427 8.24493 81.6921 9.26802C81.2189 10.696 81.0023 12.1918 81.0519 13.6905C81.0196 15.0829 81.185 16.473 81.5435 17.8219C81.8086 18.827 82.3483 19.7448 83.1061 20.4791C83.9022 21.1882 84.8843 21.6725 85.9453 21.8794C87.3807 22.1725 88.8459 22.3076 90.3128 22.2815C91.7178 22.3027 93.1217 22.1926 94.5049 21.9532C95.4979 21.7984 96.4393 21.4196 97.2528 20.8476C97.9531 20.3128 98.4764 19.5916 98.7581 18.7727C99.1011 17.7196 99.2608 16.6187 99.2307 15.5149V12.6366H90.7968C90.4555 12.6199 90.1143 12.6714 89.7945 12.7877Z" fill="white"/>
<path d="M125.577 8.63412C124.89 8.11218 124.081 7.76262 123.221 7.61684C122.216 7.43894 121.195 7.35268 120.172 7.35897C119.131 7.35045 118.091 7.43672 117.066 7.61684C116.202 7.76396 115.389 8.11325 114.696 8.63412C113.972 9.22791 113.442 10.0129 113.172 10.8932C112.47 13.4697 112.47 16.1778 113.172 18.7543C113.442 19.6346 113.972 20.4196 114.696 21.0134C115.389 21.5343 116.202 21.8834 117.066 22.0305C118.091 22.2106 119.131 22.2971 120.172 22.2885C121.195 22.2948 122.216 22.2084 123.221 22.0305C124.078 21.8863 124.886 21.5436 125.577 21.0318C126.298 20.4431 126.828 19.6647 127.101 18.791C127.493 17.5045 127.671 16.166 127.627 14.8256C127.669 13.496 127.492 12.1685 127.101 10.8932C126.825 10.0157 126.296 9.23221 125.577 8.63412ZM124.357 18.7248C124.215 19.1003 123.998 19.4447 123.717 19.7383C123.436 20.0318 123.098 20.2685 122.722 20.4347C121.055 21.014 119.232 21.014 117.566 20.4347C116.803 20.0965 116.208 19.4827 115.908 18.7248C115.519 17.8747 115.325 16.5762 115.325 14.8293C115.325 13.0824 115.519 11.7827 115.908 10.9301C116.208 10.1722 116.803 9.55821 117.566 9.22004C119.232 8.64075 121.055 8.64075 122.722 9.22004C123.098 9.38616 123.436 9.6229 123.717 9.91646C123.998 10.21 124.215 10.5546 124.357 10.9301C124.733 11.7802 124.922 13.08 124.925 14.8293C124.927 16.5787 124.738 17.8771 124.357 18.7248Z" fill="white"/>
<path d="M143.824 7.63555C143.588 7.59382 143.348 7.57515 143.108 7.58013H141.64V17.446C141.64 18.6106 141.295 19.4548 140.604 19.9781C139.914 20.5015 138.778 20.7591 137.197 20.7591C135.713 20.7591 134.615 20.5134 133.904 20.022C133.193 19.5306 132.834 18.6709 132.829 17.4424V7.57653H131.21C130.921 7.54314 130.631 7.62123 130.402 7.79391C130.234 8.04235 130.16 8.33922 130.192 8.63429V17.1513C130.141 18.2064 130.361 19.2575 130.832 20.2103C131.309 20.9996 132.088 21.5755 133.001 21.8133C134.355 22.1688 135.756 22.3279 137.159 22.2851C139.09 22.2851 140.571 22.0971 141.602 21.7211C142.057 21.5811 142.477 21.3543 142.839 21.0542C143.201 20.7542 143.497 20.3869 143.71 19.9742C144.118 19.0237 144.311 17.9995 144.274 16.9708V8.63429C144.289 8.38502 144.257 8.13518 144.179 7.8972C144.147 7.82816 144.098 7.76787 144.036 7.72211C143.974 7.67635 143.901 7.64663 143.824 7.63555Z" fill="white"/>
<path d="M161.477 10.8381C161.026 9.74674 160.156 8.86609 159.049 8.37998C157.909 7.85665 156.322 7.59485 154.289 7.59485C153.71 7.59485 153.066 7.61342 152.35 7.65027L150.261 7.76076C149.583 7.79762 148.981 7.83819 148.455 7.88979C148.1 7.91245 147.747 7.96054 147.399 8.03357C147.435 8.35426 147.454 8.67642 147.456 8.99902C147.456 9.49655 147.456 10.1047 147.456 10.7643L147.418 26H150.086V9.34542C150.464 9.2822 150.846 9.23928 151.229 9.21658C151.744 9.17972 152.285 9.15024 152.849 9.12444C153.413 9.09865 153.885 9.09115 154.263 9.09115C156.219 9.09115 157.575 9.52737 158.329 10.3996C159.084 11.2718 159.434 12.7767 159.381 14.9142C159.381 14.94 159.381 14.9658 159.381 14.9916C159.381 15.1206 159.381 15.2385 159.381 15.3602C159.381 15.5665 159.381 15.7692 159.351 15.9608C159.351 16.0419 159.351 16.1194 159.351 16.1967C159.305 16.9613 159.152 17.7164 158.897 18.4413C158.64 19.1895 158.112 19.8227 157.411 20.225C156.587 20.6335 155.668 20.8276 154.743 20.7886C154.392 20.7886 153.981 20.7887 153.501 20.7702C153.02 20.7518 152.54 20.7409 152.052 20.7188C151.74 20.7188 151.202 22.1559 151.202 22.1559L152.22 22.1929C152.773 22.1929 153.31 22.2222 153.84 22.248C154.369 22.2738 154.804 22.2815 155.158 22.2815C156.911 22.2815 158.285 22.0517 159.278 21.5923C159.769 21.3634 160.208 21.0423 160.57 20.6482C160.932 20.2541 161.209 19.7946 161.386 19.2961C161.809 18.0546 162.025 16.7558 162.026 15.4485C162.026 15.3527 162.026 15.2642 162.026 15.1647V15.0064C162.155 13.595 161.968 12.1732 161.477 10.8381Z" fill="white"/>
<path d="M104.799 8.91804C104.177 9.51722 103.745 10.2752 103.553 11.1034C103.278 12.2347 103.15 13.3948 103.172 14.5567C103.172 14.5567 103.172 14.5824 103.172 14.5972V14.7409V21.1535C103.134 21.4699 103.221 21.7883 103.415 22.0454C103.515 22.1302 103.631 22.1949 103.757 22.2354C103.882 22.2759 104.015 22.2917 104.147 22.2815H105.805V13.8048C105.821 12.9205 105.979 12.0439 106.274 11.2067C106.412 10.8279 106.633 10.4823 106.922 10.1935C107.21 9.9048 107.56 9.67966 107.947 9.53348C108.585 9.32093 109.251 9.19685 109.925 9.16493V7.59485C108.984 7.60863 108.045 7.69995 107.12 7.86766C106.259 7.99967 105.455 8.36376 104.799 8.91804Z" fill="white"/>
<path d="M169.732 3.714C169.725 4.56558 169.413 5.38859 168.85 6.04312C168.287 6.69766 167.506 7.14339 166.641 7.30441C165.777 7.46543 164.881 7.33175 164.107 6.92633C163.332 6.5209 162.727 5.86862 162.393 5.08038C162.06 4.29214 162.019 3.41664 162.278 2.60261C162.537 1.78859 163.079 1.08633 163.813 0.615221C164.546 0.144117 165.426 -0.0667001 166.302 0.0184995C167.178 0.103699 167.997 0.479644 168.619 1.08256C168.98 1.42438 169.266 1.83422 169.457 2.2868C169.649 2.73938 169.742 3.22514 169.732 3.714ZM169.172 3.714C169.174 3.29758 169.091 2.88488 168.928 2.49968C168.764 2.11449 168.523 1.76445 168.218 1.46999C167.914 1.17554 167.552 0.942426 167.154 0.784197C166.755 0.625967 166.328 0.545834 165.898 0.548279C165.465 0.540405 165.035 0.617627 164.634 0.775379C164.233 0.933131 163.87 1.16803 163.565 1.46586C163.254 1.75661 163.008 2.1064 162.843 2.4932C162.678 2.88001 162.597 3.29556 162.605 3.714C162.59 4.14005 162.664 4.56463 162.822 4.96251C162.98 5.36039 163.22 5.72346 163.526 6.02999C163.832 6.33651 164.2 6.58025 164.605 6.74674C165.011 6.91322 165.448 6.99903 165.888 6.99903C166.329 6.99903 166.765 6.91322 167.171 6.74674C167.577 6.58025 167.944 6.33651 168.25 6.02999C168.557 5.72346 168.796 5.36039 168.955 4.96251C169.113 4.56463 169.187 4.14005 169.172 3.714ZM167.689 5.84788H166.927L165.784 4.1673H165.021V5.84788H164.45V1.59848H166.241C166.608 1.59374 166.963 1.7257 167.232 1.96702C167.369 2.08343 167.477 2.22788 167.55 2.38973C167.622 2.55159 167.657 2.72685 167.651 2.90314C167.662 3.07898 167.631 3.25491 167.56 3.41726C167.489 3.57961 167.381 3.72401 167.243 3.83925C167.048 4.02157 166.796 4.13586 166.527 4.1637L167.689 5.84788ZM167.018 2.89954C167.017 2.69442 166.934 2.49759 166.786 2.3505C166.639 2.20341 166.438 2.11748 166.226 2.11081H165.029V3.65138H166.226C166.431 3.6503 166.627 3.57223 166.774 3.43381C166.855 3.36456 166.919 3.27872 166.962 3.18242C167.004 3.08612 167.023 2.98189 167.018 2.8774V2.89954Z" fill="white"/>
</svg>
