<?xml version="1.0" standalone="no"?>
<!DOCTYPE svg PUBLIC "-//W3C//DTD SVG 20010904//EN"
 "http://www.w3.org/TR/2001/REC-SVG-20010904/DTD/svg10.dtd">
<svg version="1.0" xmlns="http://www.w3.org/2000/svg"
 width="512.000000pt" height="512.000000pt" viewBox="0 0 512.000000 512.000000"
 preserveAspectRatio="xMidYMid meet">
<metadata>
Created by potrace 1.14, written by Peter Selinger 2001-2017
</metadata>
<g transform="translate(0.000000,512.000000) scale(0.100000,-0.100000)"
fill="#000000" stroke="none">
<path d="M1817 4454 c-1 -1 -40 -5 -87 -8 -118 -9 -150 -14 -270 -43 -341 -82
-644 -249 -885 -489 -171 -169 -275 -315 -380 -529 -98 -200 -155 -393 -185
-630 -22 -179 2 -501 51 -690 99 -376 338 -752 624 -980 27 -22 57 -46 65 -54
17 -16 172 -119 209 -139 151 -80 210 -106 337 -148 58 -20 114 -37 123 -39 9
-2 37 -8 64 -14 26 -6 64 -14 83 -17 20 -3 46 -7 57 -9 117 -23 386 -23 541 0
353 52 711 216 961 440 47 42 135 99 195 127 106 49 177 59 390 56 266 -3 338
7 520 69 250 85 495 281 642 510 77 120 142 282 173 433 19 89 26 328 13 425
-10 78 -48 220 -74 285 -169 405 -502 689 -910 775 -103 22 -133 25 -289 24
-71 0 -160 -1 -198 -1 -157 0 -332 71 -467 192 -266 237 -644 400 -1030 445
-55 6 -268 14 -273 9z m278 -319 c320 -44 617 -180 853 -390 19 -16 42 -46 51
-65 16 -32 18 -45 13 -108 -1 -13 -30 -51 -69 -91 -109 -109 -136 -141 -190
-221 -299 -442 -293 -1010 15 -1450 25 -36 89 -110 143 -165 108 -112 124
-149 96 -218 -45 -107 -327 -296 -582 -390 -190 -70 -487 -106 -670 -82 -22 3
-58 8 -80 11 -77 10 -241 55 -330 91 -307 121 -573 339 -753 616 -50 79 -131
239 -157 312 -9 28 -20 57 -23 65 -3 8 -6 20 -7 25 -2 6 -12 46 -23 90 -49
194 -61 481 -27 645 3 14 10 45 15 70 5 25 11 54 14 66 34 160 181 460 292
593 72 87 146 163 234 241 44 39 207 148 281 188 126 67 328 135 474 158 132
21 316 25 430 9z m1865 -639 c69 -11 174 -44 248 -78 439 -203 661 -716 507
-1173 -99 -297 -321 -516 -622 -614 -185 -61 -422 -59 -608 5 -58 19 -150 61
-185 84 -14 9 -45 30 -69 46 -55 36 -161 142 -213 212 -124 168 -188 378 -183
597 8 292 146 561 377 735 127 96 269 159 416 183 79 14 254 15 332 3z"/>
</g>
</svg>
