<svg width="13" height="13" viewBox="0 0 13 13" fill="none" xmlns="http://www.w3.org/2000/svg">
<path d="M8.625 0.945312C9.14062 0.429688 9.96094 0.429688 10.4766 0.945312L11.5547 2.02344C12.0703 2.53906 12.0703 3.35938 11.5547 3.875L9.65625 5.77344L8.69531 9.28906C8.57812 9.6875 8.27344 10.0391 7.875 10.1797L1.66406 12.3359C1.24219 12.5 0.75 12.3828 0.445312 12.0547C0.117188 11.75 0 11.2578 0.140625 10.8125L2.32031 4.625C2.46094 4.22656 2.8125 3.92188 3.21094 3.80469L6.70312 2.84375L8.625 0.945312ZM6.9375 3.94531L3.51562 4.88281C3.44531 4.90625 3.39844 4.95312 3.39844 5L1.45312 10.5078L3.84375 8.11719C3.77344 7.97656 3.75 7.8125 3.75 7.625C3.75 7.01562 4.24219 6.5 4.875 6.5C5.48438 6.5 6 7.01562 6 7.625C6 8.25781 5.48438 8.75 4.875 8.75C4.6875 8.75 4.52344 8.72656 4.38281 8.65625L1.99219 11.0469L7.5 9.10156C7.54688 9.10156 7.59375 9.03125 7.61719 8.98438L8.55469 5.5625L6.9375 3.94531Z" fill="#59595B"/>
</svg>
