<?xml version="1.0" encoding="utf-8"?>
<!-- Generator: Adobe Illustrator 24.3.0, SVG Export Plug-In . SVG Version: 6.00 Build 0)  -->
<svg version="1.1" id="Layer_1" xmlns="http://www.w3.org/2000/svg" xmlns:xlink="http://www.w3.org/1999/xlink" x="0px" y="0px"
	 viewBox="0 0 467.96 204.27" style="enable-background:new 0 0 467.96 204.27;" xml:space="preserve">
<style type="text/css">
	.st0{fill:none;stroke:#CCCCCC;stroke-miterlimit:10;}
	.st1{fill:#505557;}
	.st2{fill:#F49020;}
	.st3{fill:#706F6F;}
	.st4{fill:#008D6A;}
	.st5{fill:#008BD2;}
	.st6{fill:#76777A;}
	.st7{fill-rule:evenodd;clip-rule:evenodd;fill:#FF671D;}
	.st8{fill:#FF671D;}
</style>
<g>
	<g>
		<path class="st5" d="M290.43,31.08c0-4.46,3.61-8.08,8.08-8.08c4.47,0,8.09,3.62,8.09,8.08c0,4.46-3.62,8.08-8.09,8.08
			C294.04,39.16,290.43,35.54,290.43,31.08"/>
		<rect x="452.32" y="55.33" class="st5" width="16.16" height="80.81"/>
		<path class="st5" d="M452.32,31.08c0-4.46,3.62-8.08,8.09-8.08c4.46,0,8.09,3.62,8.09,8.08c0,4.46-3.62,8.08-8.09,8.08
			C455.94,39.16,452.32,35.54,452.32,31.08"/>
		<path class="st5" d="M363.17,71.48h72.99V23.01h-16.17v32.32h-56.82c-22.31,0-40.41,18.08-40.41,40.4
			c0,22.31,18.12,40.41,40.43,40.41h72.97v-16.17h-72.97c-13.39,0-24.26-10.85-24.26-24.24C338.93,82.33,349.78,71.48,363.17,71.48"
			/>
		<rect x="290.43" y="55.33" class="st5" width="16.17" height="80.81"/>
		<path class="st5" d="M233.85,71.48h-72.99V23.01h16.17v32.32h56.82c22.31,0,40.41,18.08,40.41,40.4
			c0,22.31-18.11,40.41-40.43,40.41h-24.61v-16.17h24.61c13.39,0,24.26-10.85,24.26-24.24C258.1,82.33,247.24,71.48,233.85,71.48"/>
		<path class="st5" d="M39.91,136.12h72.93v-16.16H39.87c-13.38,0-24.27-10.85-24.27-24.24c0-13.38,10.89-24.24,24.27-24.24h64.62
			c13.4,0,24.27,10.86,24.27,24.24c0,22.31,18.11,40.4,40.43,40.4h23.98v-16.16H169.2c-13.39,0-24.25-10.85-24.25-24.24
			c0-22.32-18.14-40.4-40.46-40.4H39.87c-22.32,0-40.42,18.08-40.42,40.4C-0.55,118.04,17.6,136.12,39.91,136.12"/>
	</g>
</g>
</svg>
