<?xml version="1.0" encoding="utf-8"?>
<!-- Generator: Adobe Illustrator 24.3.0, SVG Export Plug-In . SVG Version: 6.00 Build 0)  -->
<svg version="1.1" id="Layer_1" xmlns="http://www.w3.org/2000/svg" xmlns:xlink="http://www.w3.org/1999/xlink" x="0px" y="0px"
	 viewBox="0 0 636.36 236.77" style="enable-background:new 0 0 636.36 236.77;" xml:space="preserve">
<style type="text/css">
	.st0{fill:none;stroke:#CCCCCC;stroke-miterlimit:10;}
	.st1{fill:#505557;}
	.st2{fill:#F49020;}
	.st3{fill:#706F6F;}
	.st4{fill:#008D6A;}
	.st5{fill:#008BD2;}
	.st6{fill:#76777A;}
	.st7{fill-rule:evenodd;clip-rule:evenodd;fill:#FF671D;}
	.st8{fill:#FF671D;}
</style>
<g>
	<g>
		<rect x="155.01" y="0" class="st3" width="4.45" height="236.77"/>
		<path class="st3" d="M247.1,137.81h-12.67l-5.05-13.12H206.3l-4.77,13.12h-12.37l22.49-57.75h12.34L247.1,137.81z M225.64,114.96
			l-7.96-21.43l-7.8,21.43H225.64z"/>
		<path class="st3" d="M253.25,80.06h21.32c4.8,0,8.47,0.37,10.99,1.11c3.39,0.99,6.29,2.77,8.71,5.32
			c2.41,2.55,4.26,5.67,5.52,9.36c1.25,3.69,1.89,8.24,1.89,13.65c0,4.75-0.59,8.85-1.78,12.29c-1.45,4.2-3.51,7.6-6.18,10.21
			c-2.02,1.97-4.75,3.51-8.2,4.61c-2.57,0.81-6.01,1.22-10.32,1.22h-21.94V80.06z M264.91,89.83v38.25h8.71
			c3.25,0,5.6-0.18,7.06-0.55c1.89-0.47,3.45-1.27,4.71-2.4c1.24-1.13,2.26-2.99,3.04-5.57c0.79-2.59,1.18-6.11,1.18-10.58
			c0-4.46-0.39-7.89-1.18-10.28c-0.78-2.39-1.89-4.25-3.31-5.59c-1.42-1.34-3.22-2.24-5.39-2.72c-1.63-0.37-4.82-0.55-9.57-0.55
			H264.91z"/>
		<path class="st3" d="M309.19,109.29c0-5.89,0.88-10.82,2.64-14.81c1.31-2.94,3.11-5.58,5.38-7.92c2.27-2.34,4.76-4.07,7.47-5.2
			c3.6-1.52,7.75-2.29,12.45-2.29c8.51,0,15.32,2.64,20.43,7.92c5.11,5.28,7.67,12.62,7.67,22.02c0,9.33-2.54,16.62-7.6,21.89
			c-5.07,5.26-11.85,7.9-20.33,7.9c-8.59,0-15.42-2.62-20.48-7.86C311.72,125.7,309.19,118.48,309.19,109.29 M321.2,108.9
			c0,6.54,1.52,11.5,4.53,14.87c3.02,3.37,6.85,5.06,11.5,5.06c4.64,0,8.47-1.67,11.44-5.02c2.98-3.35,4.47-8.37,4.47-15.07
			c0-6.62-1.45-11.55-4.35-14.81c-2.9-3.26-6.76-4.89-11.56-4.89c-4.81,0-8.69,1.65-11.62,4.95
			C322.67,97.28,321.2,102.25,321.2,108.9"/>
		<path class="st3" d="M374.35,137.81V80.06h24.54c6.17,0,10.66,0.52,13.45,1.56c2.8,1.04,5.04,2.88,6.72,5.53
			c1.68,2.65,2.52,5.69,2.52,9.1c0,4.33-1.27,7.91-3.82,10.74c-2.55,2.82-6.36,4.6-11.42,5.34c2.52,1.47,4.6,3.08,6.24,4.84
			c1.64,1.76,3.85,4.89,6.64,9.37l7.06,11.27h-13.95l-8.43-12.57c-2.99-4.49-5.04-7.32-6.14-8.49c-1.1-1.17-2.27-1.97-3.51-2.4
			c-1.23-0.43-3.19-0.65-5.87-0.65h-2.37v24.11H374.35z M386.01,104.49h8.63c5.59,0,9.08-0.24,10.47-0.71s2.49-1.29,3.27-2.44
			c0.79-1.15,1.18-2.6,1.18-4.33c0-1.94-0.52-3.51-1.56-4.71c-1.04-1.2-2.5-1.95-4.39-2.27c-0.94-0.13-3.78-0.2-8.51-0.2h-9.1
			V104.49z"/>
		<path class="st3" d="M484.65,137.81h-12.68l-5.05-13.12h-23.08l-4.77,13.12h-12.37l22.49-57.75h12.34L484.65,137.81z
			 M463.19,114.96l-7.96-21.43l-7.8,21.43H463.19z"/>
		<polygon class="st3" points="497.85,137.81 497.85,89.83 480.71,89.83 480.71,80.06 526.61,80.06 526.61,89.83 509.51,89.83 
			509.51,137.81 		"/>
		<polygon class="st3" points="534.14,137.81 534.14,80.06 576.95,80.06 576.95,89.83 545.8,89.83 545.8,102.63 574.79,102.63 
			574.79,112.36 545.8,112.36 545.8,128.08 578.06,128.08 578.06,137.81 		"/>
		<path class="st3" d="M587.99,80.06h23.09c4.57,0,7.97,0.19,10.21,0.57c2.25,0.38,4.25,1.17,6.03,2.38
			c1.78,1.2,3.25,2.81,4.44,4.82c1.17,2.01,1.77,4.26,1.77,6.76c0,2.71-0.72,5.19-2.19,7.44c-1.45,2.26-3.43,3.96-5.92,5.09
			c3.52,1.02,6.22,2.77,8.11,5.24c1.9,2.47,2.83,5.37,2.83,8.7c0,2.63-0.61,5.18-1.83,7.67c-1.23,2.48-2.89,4.46-5,5.95
			c-2.11,1.48-4.73,2.4-7.82,2.74c-1.94,0.21-6.63,0.34-14.06,0.4h-19.66V80.06z M599.65,89.67v13.35h7.65
			c4.54,0,7.37-0.07,8.47-0.2c2-0.24,3.57-0.93,4.71-2.07c1.15-1.14,1.72-2.64,1.72-4.51c0-1.78-0.49-3.23-1.47-4.35
			c-0.99-1.12-2.45-1.79-4.39-2.03c-1.16-0.13-4.48-0.19-9.97-0.19H599.65z M599.65,112.64v15.44h10.8c4.2,0,6.86-0.12,7.99-0.35
			c1.73-0.32,3.15-1.08,4.24-2.31c1.09-1.22,1.63-2.86,1.63-4.9c0-1.74-0.42-3.21-1.26-4.42c-0.84-1.2-2.05-2.09-3.64-2.64
			c-1.59-0.55-5.04-0.83-10.34-0.83H599.65z"/>
		<path class="st4" d="M45.49,154.07c-2.31-0.39-4.23-0.85-5.78-1.37c-7.14-2.35-10.25-11.4-5.76-17.62c0,0,29.72-30.59,89.13-91.8
			c3.09-5.03,2.99-9.73-0.32-14.1c0,0-8.97-9.73-26.9-29.19H33.31c-3.64,0-4.27,2.49-3.44,4.56c15.25,16.56,23.1,25.31,23.25,25.53
			c0.03,0.04,0.06,0.07,0.09,0.1v0.04c2.74,4.14,2.69,8.56-0.22,13.29C34.3,62.77,18.55,78.99,5.74,92.19
			c-16.58,25.31,4.97,70.49,36.24,70.85c4.61,0.15,7.2-0.97,7.77-3.35C50.26,156.79,48.84,154.93,45.49,154.07"/>
		<path class="st4" d="M120.5,119.09c-2.3-2.31-8.5-8.52-18.6-18.62c-5.89-5.6-11.99-5.04-18.3,1.72c0,0-8.87,9.62-26.58,28.42
			v61.05c0,0,13.85,15.04,41.58,45.11h7.18v-70.06v-10.71v-1.47c0.17-1.77,0.91-3.37,2.08-4.58c0.04-0.05,0.09-0.1,0.13-0.14
			c1.27-1.38,3.08-3.35,5.44-5.92c2.59-2.82,5.82-6.33,9.73-10.57c3.43-3.72,2.49-9.06-0.77-12.4
			C121.8,120.3,121.12,119.71,120.5,119.09"/>
	</g>
	<g>
		<g>
			<path class="st6" d="M419.32,163.51c-1.34-0.22-2.65-0.38-3.93-0.47c-1.28-0.09-2.61-0.14-3.98-0.14c-2.67,0-4.95,0.19-6.82,0.56
				c-1.88,0.37-3.41,1.04-4.6,2.01c-1.19,0.97-2.05,2.3-2.59,4.01c-0.54,1.71-0.81,3.88-0.81,6.52c0,2.71,0.25,4.92,0.75,6.63
				c0.5,1.71,1.32,3.04,2.45,3.98c1.13,0.95,2.65,1.61,4.54,2.01c1.89,0.39,4.21,0.58,6.96,0.58c1.37,0,2.71-0.05,4.01-0.14
				c1.3-0.09,2.6-0.27,3.9-0.53c1.15-0.15,1.89-0.4,2.23-0.75c0.33-0.35,0.5-0.77,0.5-1.25v-1.28c-0.86,0.26-1.88,0.51-3.06,0.75
				c-1.19,0.24-2.41,0.42-3.68,0.53c-1.26,0.11-2.39,0.17-3.4,0.17c-2.79,0-4.97-0.32-6.54-0.95c-1.58-0.63-2.68-1.72-3.31-3.26
				c-0.63-1.54-0.95-3.7-0.95-6.49s0.33-4.94,1-6.46c0.67-1.52,1.77-2.59,3.31-3.2s3.61-0.92,6.21-0.92c1.04,0,2.23,0.06,3.57,0.17
				c1.34,0.11,2.64,0.29,3.9,0.53c1.26,0.24,2.95,0.86,2.95,0.86v-1.39c0-0.56-0.16-0.99-0.47-1.31
				C421.15,163.95,420.43,163.7,419.32,163.51z"/>
			<path class="st6" d="M442.71,168.25c-0.97-0.78-2.13-1.3-3.48-1.56c-1.36-0.26-2.87-0.39-4.54-0.39c-1.71,0-3.24,0.13-4.59,0.39
				c-1.36,0.26-2.53,0.78-3.51,1.56c-0.99,0.78-1.74,1.93-2.26,3.45c-0.52,1.52-0.78,3.53-0.78,6.02c0,2.49,0.26,4.49,0.78,6.01
				c0.52,1.52,1.27,2.67,2.26,3.45c0.98,0.78,2.15,1.3,3.51,1.56c1.35,0.26,2.89,0.39,4.59,0.39c1.67,0,3.18-0.13,4.54-0.39
				c1.35-0.26,2.52-0.77,3.48-1.53c0.97-0.76,1.71-1.9,2.23-3.43c0.52-1.52,0.78-3.55,0.78-6.07c0-2.49-0.26-4.49-0.78-6.02
				C444.42,170.18,443.68,169.03,442.71,168.25z M440.93,183.68c-0.56,1.3-1.36,2.17-2.42,2.62c-1.06,0.45-2.33,0.67-3.82,0.67
				c-1.49,0-2.76-0.22-3.81-0.67c-1.06-0.45-1.88-1.32-2.45-2.62c-0.58-1.3-0.86-3.29-0.86-5.96c0-2.67,0.29-4.66,0.86-5.96
				c0.57-1.3,1.39-2.17,2.45-2.62c1.06-0.45,2.33-0.67,3.81-0.67c1.48,0,2.76,0.22,3.82,0.67c1.06,0.45,1.87,1.32,2.42,2.62
				c0.56,1.3,0.84,3.29,0.84,5.96C441.77,180.39,441.49,182.38,440.93,183.68z"/>
			<path class="st6" d="M492.31,167.24c-1.43-0.63-3.33-0.95-5.71-0.95c-3.08,0-5.48,0.41-7.19,1.23c-1.71,0.82-2.9,2.08-3.57,3.79
				c-0.67,1.71-1,3.9-1,6.57c0,2.34,0.19,4.24,0.59,5.71c0.39,1.47,1.02,2.61,1.89,3.43c0.87,0.82,2.04,1.37,3.51,1.67
				c1.47,0.3,3.28,0.45,5.43,0.45c1.93,0,3.59-0.06,4.99-0.17c1.39-0.11,2.5-0.33,3.31-0.67c0.63-0.22,1.05-0.5,1.25-0.83
				s0.31-0.69,0.31-1.06v-0.67c-0.3,0.15-0.81,0.29-1.53,0.42c-0.72,0.13-1.55,0.23-2.48,0.31c-0.93,0.08-1.85,0.14-2.76,0.2
				c-0.91,0.05-1.72,0.08-2.42,0.08c-2.04,0-3.66-0.23-4.85-0.7c-1.19-0.46-2.03-1.34-2.53-2.62c-0.5-1.28-0.75-3.15-0.75-5.6
				c0-2.3,0.22-4.12,0.67-5.46c0.45-1.34,1.23-2.3,2.34-2.9c1.11-0.59,2.65-0.89,4.62-0.89c2.34,0,3.98,0.52,4.93,1.56
				c0.95,1.04,1.44,2.71,1.48,5.01l0.06,1.62h-10.64c-0.59,0-1,0.16-1.23,0.47c-0.22,0.32-0.33,1.42-0.33,1.86h15.71v-3.9
				c0-2.08-0.33-3.77-0.97-5.07C494.78,168.84,493.74,167.88,492.31,167.24z"/>
			<path class="st6" d="M507.55,187.07c-0.45,0.08-0.8,0.11-1.06,0.11c-0.93,0-1.55-0.32-1.87-0.95c-0.32-0.63-0.47-1.65-0.47-3.06
				v-20.11c0-0.67,0-2.36,0-2.39h-2.23c-0.45,0-0.79,0.06-1.03,0.17c-0.24,0.11-0.4,0.31-0.47,0.59c-0.08,0.28-0.11,0.64-0.11,1.09
				v21.28c0,1.97,0.37,3.33,1.11,4.09c0.74,0.76,1.97,1.14,3.68,1.14c1,0,1.75-0.06,2.25-0.17c0.5-0.11,0.86-0.19,1.09-0.22v-1.73
				C508.29,186.94,507.99,187,507.55,187.07z"/>
			<path class="st6" d="M467.41,167.58c-1.47-0.7-3.5-1.06-6.1-1.06c-0.52,0-1.17,0.02-1.95,0.05c-0.78,0.04-1.58,0.07-2.39,0.08
				c-0.56,0.01-1.05,0.03-1.5,0.05v2.26c0.38-0.02,0.79-0.03,1.25-0.06c0.72-0.04,1.44-0.06,2.14-0.08c0.7-0.02,1.32-0.03,1.84-0.03
				c1.63,0,2.95,0.29,3.95,0.86c1,0.58,1.74,1.49,2.2,2.73c0.46,1.24,0.71,2.94,0.75,5.1c0,2.64-0.23,4.61-0.7,5.93
				c-0.46,1.32-1.23,2.19-2.28,2.62c-1.06,0.43-2.55,0.64-4.48,0.64c-1.41,0-2.54-0.1-3.4-0.31c-0.85-0.2-1.48-0.58-1.89-1.14
				c-0.41-0.56-0.68-1.37-0.81-2.45c-0.13-1.08-0.2-2.51-0.2-4.29v-17.82h-3.9l0.06,17.38c0,2.41,0.13,4.34,0.39,5.79
				c0.26,1.45,0.74,2.54,1.45,3.29c0.71,0.74,1.74,1.23,3.09,1.48c1.35,0.24,3.07,0.36,5.15,0.36c1.74,0,3.32-0.08,4.73-0.25
				c1.41-0.17,2.61-0.6,3.59-1.31c0.98-0.7,1.74-1.83,2.28-3.37c0.54-1.54,0.81-3.67,0.81-6.38c-0.04-2.75-0.36-4.94-0.97-6.57
				S468.88,168.28,467.41,167.58z"/>
		</g>
		<g>
			<path class="st6" d="M528.11,174.65c-0.32,0.15-0.52,0.39-0.61,0.72c-0.09,0.33-0.14,0.83-0.14,1.5h10.53
				c0,0.19,0.01,0.46,0.03,0.81c0.02,0.35,0.01,0.77-0.03,1.25c-0.04,2.08-0.35,3.7-0.95,4.85c-0.59,1.15-1.52,1.93-2.79,2.34
				c-1.26,0.41-2.97,0.61-5.12,0.61c-2.38,0-4.26-0.32-5.65-0.97c-1.39-0.65-2.38-1.75-2.95-3.31c-0.58-1.56-0.86-3.7-0.86-6.41
				c0-2.82,0.32-5,0.97-6.54c0.65-1.54,1.72-2.63,3.2-3.26c1.49-0.63,3.53-0.95,6.13-0.95c0.56,0,1.25,0.01,2.09,0.03
				c0.84,0.02,1.72,0.08,2.65,0.17c0.93,0.09,1.83,0.19,2.7,0.31c0.87,0.11,1.64,0.24,2.31,0.39c0.67,0.15,1.13,0.33,1.39,0.56
				v-1.11c0-0.3-0.05-0.59-0.14-0.86c-0.09-0.28-0.32-0.53-0.67-0.75c-0.35-0.22-0.9-0.39-1.64-0.5c-1.15-0.26-2.52-0.44-4.09-0.53
				c-1.58-0.09-3.3-0.14-5.15-0.14c-2.27,0-4.27,0.18-6.02,0.53c-1.74,0.35-3.22,0.99-4.43,1.92c-1.21,0.93-2.13,2.26-2.76,3.98
				c-0.63,1.73-0.95,3.98-0.95,6.77c0,2.53,0.24,4.63,0.72,6.32c0.48,1.69,1.25,3.04,2.31,4.07s2.46,1.74,4.21,2.14
				c1.74,0.41,3.9,0.61,6.46,0.61c2.45,0,4.52-0.17,6.21-0.5c1.69-0.33,3.04-0.9,4.07-1.7c1.02-0.8,1.76-1.86,2.23-3.17
				c0.46-1.32,0.7-2.98,0.7-4.99v-4.4h-12.48C528.92,174.43,528.43,174.5,528.11,174.65z"/>
			<path class="st6" d="M582.34,168.25c-0.97-0.78-2.13-1.3-3.48-1.56c-1.36-0.26-2.87-0.39-4.54-0.39c-1.71,0-3.24,0.13-4.59,0.39
				c-1.36,0.26-2.53,0.78-3.51,1.56c-0.99,0.78-1.74,1.93-2.26,3.45c-0.52,1.52-0.78,3.53-0.78,6.02c0,2.49,0.26,4.49,0.78,6.01
				c0.52,1.52,1.27,2.67,2.26,3.45c0.98,0.78,2.15,1.3,3.51,1.56c1.35,0.26,2.89,0.39,4.59,0.39c1.67,0,3.18-0.13,4.54-0.39
				c1.35-0.26,2.52-0.77,3.48-1.53c0.97-0.76,1.71-1.9,2.23-3.43c0.52-1.52,0.78-3.55,0.78-6.07c0-2.49-0.26-4.49-0.78-6.02
				C584.04,170.18,583.3,169.03,582.34,168.25z M580.55,183.68c-0.56,1.3-1.36,2.17-2.42,2.62s-2.33,0.67-3.82,0.67
				c-1.49,0-2.76-0.22-3.81-0.67c-1.06-0.45-1.88-1.32-2.45-2.62c-0.58-1.3-0.86-3.29-0.86-5.96c0-2.67,0.29-4.66,0.86-5.96
				c0.57-1.3,1.39-2.17,2.45-2.62c1.06-0.45,2.33-0.67,3.81-0.67c1.48,0,2.76,0.22,3.82,0.67s1.87,1.32,2.42,2.62
				c0.56,1.3,0.84,3.29,0.84,5.96C581.39,180.39,581.11,182.38,580.55,183.68z"/>
			<path class="st6" d="M609.35,166.66c-0.26-0.05-0.61-0.08-1.06-0.08c-0.07,0-0.22,0-0.45,0c-0.22,0-0.46,0-0.7,0s-0.46,0-0.67,0
				c-0.2,0-0.33,0-0.36,0v15.1c0,1.78-0.51,3.07-1.53,3.87c-1.02,0.8-2.7,1.2-5.04,1.2c-2.19,0-3.82-0.38-4.87-1.14
				c-1.06-0.76-1.59-2.07-1.59-3.93v-15.1c-0.41,0-0.81,0-1.2,0c-0.39,0-0.79,0-1.2,0c-0.59,0-0.99,0.11-1.2,0.33
				c-0.2,0.22-0.31,0.65-0.31,1.28v13.03c0,1.97,0.32,3.53,0.95,4.68c0.63,1.15,1.7,1.97,3.2,2.45c1.5,0.48,3.55,0.72,6.15,0.72
				c2.86,0,5.05-0.29,6.57-0.86c1.52-0.57,2.56-1.47,3.12-2.67c0.56-1.21,0.83-2.74,0.83-4.6v-12.75c0-0.52-0.05-0.89-0.14-1.11
				C609.79,166.85,609.61,166.72,609.35,166.66z"/>
			<path class="st6" d="M635.47,171.37c-0.71-1.71-1.9-2.96-3.59-3.76c-1.69-0.8-4.04-1.2-7.05-1.2c-0.85,0-1.81,0.03-2.87,0.08
				c-1.06,0.06-2.09,0.11-3.09,0.17c-1,0.06-1.89,0.12-2.67,0.2c-0.78,0.07-1.3,0.15-1.56,0.22c0.04,0.22,0.06,0.72,0.08,1.48
				c0.02,0.76,0.03,1.66,0.03,2.7l-0.05,23.5h3.95v-25.68c0.37-0.07,0.94-0.14,1.7-0.19c0.76-0.06,1.56-0.1,2.4-0.14
				c0.83-0.04,1.53-0.05,2.09-0.05c2.9,0,4.9,0.67,6.02,2c1.11,1.33,1.63,3.63,1.56,6.91h0c0,0.04,0,0.08,0,0.12
				c0,0.2-0.01,0.38-0.01,0.57c-0.01,0.32-0.02,0.63-0.04,0.92c-0.01,0.12-0.02,0.24-0.02,0.36c-0.11,1.38-0.33,2.53-0.67,3.43
				c-0.46,1.24-1.2,2.15-2.2,2.73c-1,0.58-2.32,0.86-3.95,0.86c-0.52,0-1.13-0.01-1.84-0.03c-0.71-0.02-1.42-0.05-2.15-0.08
				c-0.46-0.02-1.25,2.2-1.25,2.2c0.46,0.02,0.94,0.04,1.5,0.05c0.82,0.02,1.61,0.05,2.39,0.08c0.78,0.04,1.43,0.05,1.95,0.05
				c2.6,0,4.63-0.35,6.1-1.06c1.47-0.71,2.51-1.88,3.12-3.51c0.56-1.49,0.87-3.47,0.95-5.89c0.01-0.15,0.02-0.28,0.02-0.43
				c0-0.09,0-0.16,0-0.25c0,0,0,0,0-0.01c0,0,0,0,0,0C636.43,175.15,636.15,173.02,635.47,171.37z"/>
			<path class="st6" d="M551.62,168.34c-0.85,0.8-1.47,1.91-1.85,3.34c-0.36,1.37-0.55,3.14-0.56,5.28c0,0.02-0.01,0.04-0.01,0.06
				v0.22c0,0,0,0,0,0.01c0,0,0,0,0,0v9.81c0,0.67,0.12,1.12,0.36,1.37c0.24,0.24,0.6,0.36,1.09,0.36h2.45v-12.97
				c0.08-1.67,0.31-3,0.69-3.98c0.49-1.25,1.31-2.1,2.47-2.55c0.78-0.31,1.77-0.5,2.93-0.6v-2.4c-1.6,0.04-2.99,0.18-4.15,0.41
				C553.61,167,552.47,167.54,551.62,168.34z"/>
		</g>
		<g>
			<path class="st6" d="M254.47,188.79h-1.35v-1.48c-1.09,1.2-2.51,1.79-4.27,1.79c-1.16,0-2.18-0.38-3.07-1.13
				c-0.88-0.75-1.33-1.77-1.33-3.06c0-1.3,0.44-2.32,1.31-3.06c0.88-0.74,1.9-1.11,3.08-1.11c1.77,0,3.19,0.6,4.27,1.79V180
				c0-0.9-0.32-1.61-0.96-2.12c-0.64-0.51-1.45-0.77-2.42-0.77c-1.54,0-2.85,0.62-3.93,1.85l-0.75-0.94c1.3-1.4,2.91-2.11,4.84-2.11
				c1.35,0,2.45,0.34,3.3,1.01s1.27,1.68,1.27,3.02V188.79z M249.32,188.04c1.65,0,2.91-0.57,3.8-1.72v-2.76
				c-0.9-1.16-2.17-1.74-3.8-1.74c-1.02,0-1.85,0.29-2.48,0.88c-0.63,0.59-0.95,1.34-0.95,2.24c0,0.9,0.32,1.64,0.95,2.22
				S248.3,188.04,249.32,188.04z"/>
			<path class="st6" d="M281.73,188.79h-1.35V180c0-1.91-0.84-2.86-2.52-2.86c-0.66,0-1.33,0.21-2.02,0.62
				c-0.69,0.42-1.21,0.92-1.57,1.51v9.52h-1.38V180c0-1.91-0.84-2.86-2.52-2.86c-0.64,0-1.3,0.21-1.98,0.64
				c-0.68,0.42-1.21,0.93-1.61,1.52v9.49h-1.35v-12.56h1.35v1.9c0.31-0.5,0.86-1,1.65-1.48s1.59-0.73,2.41-0.73
				c0.92,0,1.66,0.23,2.21,0.68c0.56,0.45,0.92,1.01,1.09,1.69c0.38-0.62,0.96-1.17,1.74-1.65c0.78-0.48,1.59-0.72,2.42-0.72
				c2.29,0,3.43,1.27,3.43,3.82V188.79z"/>
			<path class="st6" d="M291.51,189.11c-1.84,0-3.35-0.62-4.53-1.85c-1.18-1.23-1.77-2.82-1.77-4.76c0-1.84,0.58-3.39,1.73-4.67
				c1.15-1.27,2.6-1.91,4.33-1.91c1.84,0,3.29,0.64,4.34,1.91c1.06,1.27,1.59,2.86,1.59,4.75v0.36H286.7
				c0.07,1.42,0.55,2.61,1.43,3.56c0.88,0.95,2.05,1.43,3.49,1.43c1.67,0,3.03-0.58,4.11-1.74l0.7,0.88
				C295.12,188.43,293.48,189.11,291.51,189.11z M295.82,181.88c-0.02-1.21-0.42-2.31-1.21-3.3c-0.79-0.99-1.91-1.48-3.37-1.48
				c-1.37,0-2.46,0.49-3.26,1.47c-0.81,0.98-1.24,2.09-1.29,3.32H295.82z"/>
			<path class="st6" d="M317,188.79h-1.35V180c0-1.91-0.84-2.86-2.52-2.86c-0.66,0-1.33,0.21-2.02,0.62
				c-0.69,0.42-1.21,0.92-1.57,1.51v9.52h-1.38V180c0-1.91-0.84-2.86-2.52-2.86c-0.64,0-1.3,0.21-1.98,0.64
				c-0.68,0.42-1.21,0.93-1.61,1.52v9.49h-1.35v-12.56h1.35v1.9c0.31-0.5,0.86-1,1.65-1.48s1.59-0.73,2.41-0.73
				c0.92,0,1.66,0.23,2.21,0.68c0.55,0.45,0.92,1.01,1.09,1.69c0.38-0.62,0.96-1.17,1.74-1.65c0.78-0.48,1.59-0.72,2.42-0.72
				c2.29,0,3.43,1.27,3.43,3.82V188.79z"/>
			<path class="st6" d="M322.56,188.79h-1.35v-17.35h1.35v6.81c1.11-1.56,2.57-2.34,4.37-2.34c1.68,0,3.04,0.6,4.07,1.81
				c1.03,1.21,1.55,2.81,1.55,4.8c0,1.99-0.52,3.59-1.55,4.79c-1.03,1.2-2.39,1.79-4.07,1.79c-0.9,0-1.74-0.22-2.51-0.65
				c-0.77-0.43-1.39-0.99-1.86-1.67V188.79z M322.56,185.65c0.38,0.62,0.95,1.15,1.72,1.59c0.76,0.43,1.57,0.65,2.42,0.65
				c1.37,0,2.45-0.5,3.23-1.51c0.78-1.01,1.17-2.29,1.17-3.85c0-1.58-0.39-2.87-1.17-3.88c-0.78-1.01-1.86-1.51-3.23-1.51
				c-0.83,0-1.63,0.23-2.41,0.68c-0.77,0.45-1.35,0.99-1.73,1.61V185.65z"/>
			<path class="st6" d="M341.63,189.11c-1.84,0-3.35-0.62-4.53-1.85c-1.18-1.23-1.77-2.82-1.77-4.76c0-1.84,0.58-3.39,1.73-4.67
				c1.15-1.27,2.6-1.91,4.33-1.91c1.84,0,3.29,0.64,4.34,1.91c1.06,1.27,1.59,2.86,1.59,4.75v0.36h-10.51
				c0.07,1.42,0.55,2.61,1.43,3.56c0.88,0.95,2.05,1.43,3.49,1.43c1.67,0,3.03-0.58,4.11-1.74l0.7,0.88
				C345.24,188.43,343.6,189.11,341.63,189.11z M345.94,181.88c-0.02-1.21-0.42-2.31-1.21-3.3c-0.79-0.99-1.91-1.48-3.37-1.48
				c-1.37,0-2.46,0.49-3.26,1.47c-0.81,0.98-1.24,2.09-1.29,3.32H345.94z"/>
			<path class="st6" d="M352.16,188.79h-1.35v-12.56h1.35v2.16c1.23-1.61,2.64-2.42,4.24-2.42v1.48c-0.16-0.03-0.38-0.05-0.68-0.05
				c-0.62,0-1.3,0.23-2.03,0.7s-1.24,0.98-1.53,1.53V188.79z"/>
			<path class="st6" d="M371.09,189.11c-1.8,0-3.26-0.63-4.37-1.9c-1.11-1.27-1.67-2.84-1.67-4.71s0.55-3.44,1.67-4.69
				c1.11-1.26,2.57-1.89,4.37-1.89c1.82,0,3.29,0.63,4.4,1.89c1.11,1.26,1.66,2.82,1.66,4.69s-0.55,3.44-1.66,4.71
				C374.38,188.47,372.92,189.11,371.09,189.11z M371.09,187.88c1.42,0,2.54-0.52,3.37-1.57c0.82-1.05,1.24-2.32,1.24-3.81
				c0-1.47-0.41-2.73-1.24-3.78c-0.82-1.05-1.95-1.57-3.37-1.57c-1.4,0-2.52,0.52-3.34,1.57c-0.82,1.05-1.24,2.31-1.24,3.78
				c0,1.47,0.41,2.74,1.24,3.8C368.58,187.36,369.69,187.88,371.09,187.88z"/>
			<path class="st6" d="M382.44,188.79h-1.35v-11.37H379v-1.2h2.08v-1.14c0-1.21,0.3-2.17,0.91-2.86c0.61-0.69,1.44-1.04,2.5-1.04
				c0.92,0,1.72,0.3,2.39,0.88l-0.65,0.94c-0.47-0.43-1.01-0.65-1.61-0.65c-1.46,0-2.18,0.91-2.18,2.73v1.14h2.55v1.2h-2.55V188.79z
				"/>
		</g>
	</g>
</g>
</svg>
