<?xml version="1.0" encoding="utf-8"?>
<!-- Generator: Adobe Illustrator 24.3.0, SVG Export Plug-In . SVG Version: 6.00 Build 0)  -->
<svg version="1.1" id="Layer_1" xmlns="http://www.w3.org/2000/svg" xmlns:xlink="http://www.w3.org/1999/xlink" x="0px" y="0px"
	 viewBox="0 0 472.04 202.06" style="enable-background:new 0 0 472.04 202.06;" xml:space="preserve">
<style type="text/css">
	.st0{fill:none;stroke:#CCCCCC;stroke-miterlimit:10;}
	.st1{fill:#505557;}
	.st2{fill:#F49020;}
	.st3{fill:#706F6F;}
	.st4{fill:#008D6A;}
	.st5{fill:#008BD2;}
	.st6{fill:#76777A;}
	.st7{fill-rule:evenodd;clip-rule:evenodd;fill:#FF671D;}
	.st8{fill:#FF671D;}
</style>
<g>
	<g>
		<rect x="117.26" y="0" class="st3" width="3.28" height="174.55"/>
		<path class="st3" d="M185.15,101.59h-9.34l-3.72-9.67h-17.02l-3.52,9.67h-9.12l16.58-42.57h9.1L185.15,101.59z M169.33,84.75
			l-5.87-15.8l-5.75,15.8H169.33z"/>
		<path class="st3" d="M189.69,59.02h15.71c3.54,0,6.24,0.27,8.1,0.82c2.5,0.73,4.64,2.04,6.42,3.92c1.78,1.88,3.14,4.18,4.07,6.9
			c0.92,2.72,1.39,6.07,1.39,10.06c0,3.51-0.44,6.53-1.31,9.06c-1.07,3.1-2.59,5.61-4.56,7.52c-1.49,1.45-3.5,2.59-6.04,3.4
			c-1.89,0.6-4.43,0.9-7.61,0.9h-16.18V59.02z M198.28,66.22v28.2h6.42c2.4,0,4.13-0.13,5.2-0.41c1.39-0.35,2.55-0.94,3.47-1.77
			c0.92-0.83,1.67-2.2,2.24-4.11c0.58-1.91,0.87-4.51,0.87-7.8c0-3.29-0.29-5.82-0.87-7.58c-0.58-1.76-1.39-3.14-2.44-4.12
			c-1.04-0.99-2.37-1.65-3.98-2c-1.2-0.27-3.55-0.41-7.05-0.41H198.28z"/>
		<path class="st3" d="M230.92,80.57c0-4.34,0.65-7.98,1.94-10.92c0.97-2.17,2.29-4.11,3.96-5.84c1.67-1.72,3.51-3,5.5-3.83
			c2.65-1.12,5.71-1.68,9.18-1.68c6.27,0,11.29,1.95,15.06,5.84c3.76,3.89,5.65,9.3,5.65,16.23c0,6.88-1.87,12.25-5.61,16.13
			c-3.74,3.88-8.74,5.82-14.99,5.82c-6.33,0-11.36-1.93-15.1-5.79C232.79,92.66,230.92,87.34,230.92,80.57 M239.78,80.28
			c0,4.82,1.12,8.48,3.34,10.96c2.22,2.49,5.05,3.73,8.48,3.73c3.42,0,6.24-1.23,8.43-3.7c2.2-2.47,3.3-6.17,3.3-11.11
			c0-4.88-1.07-8.52-3.21-10.92c-2.14-2.4-4.98-3.6-8.52-3.6c-3.55,0-6.4,1.21-8.57,3.65C240.86,71.71,239.78,75.38,239.78,80.28"/>
		<path class="st3" d="M278.95,101.59V59.02h18.09c4.55,0,7.86,0.39,9.91,1.15c2.07,0.77,3.72,2.13,4.95,4.08
			c1.24,1.96,1.86,4.19,1.86,6.71c0,3.19-0.94,5.83-2.82,7.91c-1.88,2.08-4.69,3.39-8.42,3.94c1.86,1.08,3.39,2.27,4.6,3.57
			c1.21,1.3,2.84,3.6,4.89,6.91l5.2,8.31h-10.28l-6.21-9.26c-2.21-3.31-3.71-5.4-4.53-6.26c-0.81-0.86-1.67-1.45-2.59-1.77
			c-0.91-0.32-2.35-0.48-4.33-0.48h-1.75v17.77H278.95z M287.55,77.02h6.36c4.12,0,6.7-0.17,7.72-0.52c1.03-0.35,1.83-0.95,2.41-1.8
			c0.58-0.85,0.87-1.91,0.87-3.19c0-1.43-0.38-2.59-1.15-3.47c-0.76-0.88-1.84-1.44-3.24-1.67c-0.69-0.1-2.79-0.14-6.27-0.14h-6.71
			V77.02z"/>
		<path class="st3" d="M360.27,101.59h-9.35l-3.72-9.67h-17.02l-3.51,9.67h-9.12l16.58-42.57h9.09L360.27,101.59z M344.44,84.75
			l-5.87-15.8l-5.75,15.8H344.44z"/>
		<polygon class="st3" points="370,101.59 370,66.22 357.36,66.22 357.36,59.02 391.2,59.02 391.2,66.22 378.59,66.22 
			378.59,101.59 		"/>
		<polygon class="st3" points="396.75,101.59 396.75,59.02 428.31,59.02 428.31,66.22 405.34,66.22 405.34,75.66 426.71,75.66 
			426.71,82.83 405.34,82.83 405.34,94.42 429.13,94.42 429.13,101.59 		"/>
		<path class="st3" d="M436.44,59.02h17.02c3.37,0,5.88,0.14,7.53,0.42c1.66,0.28,3.13,0.87,4.44,1.76c1.31,0.89,2.4,2.07,3.27,3.56
			c0.87,1.48,1.3,3.14,1.3,4.98c0,1.99-0.53,3.82-1.61,5.49c-1.07,1.67-2.53,2.92-4.37,3.75c2.59,0.75,4.59,2.04,5.98,3.86
			c1.4,1.82,2.09,3.96,2.09,6.42c0,1.94-0.45,3.82-1.35,5.65c-0.91,1.83-2.13,3.29-3.69,4.38c-1.56,1.09-3.48,1.77-5.77,2.02
			c-1.43,0.16-4.89,0.25-10.36,0.29h-14.49V59.02z M445.04,66.11v9.84h5.64c3.35,0,5.43-0.05,6.24-0.14
			c1.47-0.18,2.63-0.68,3.47-1.53c0.85-0.84,1.26-1.95,1.26-3.33c0-1.31-0.36-2.38-1.08-3.21c-0.73-0.82-1.81-1.32-3.24-1.5
			c-0.85-0.1-3.3-0.14-7.35-0.14H445.04z M445.04,83.03v11.38H453c3.1,0,5.06-0.09,5.89-0.26c1.28-0.23,2.32-0.8,3.12-1.7
			c0.8-0.9,1.2-2.11,1.2-3.61c0-1.28-0.31-2.36-0.93-3.26c-0.62-0.89-1.51-1.54-2.69-1.94c-1.17-0.41-3.71-0.61-7.62-0.61H445.04z"
			/>
		<path class="st4" d="M36.52,113.58c-1.7-0.29-3.12-0.62-4.26-1.01c-5.26-1.74-7.55-8.41-4.24-12.99c0,0,21.91-22.55,65.7-67.67
			c2.28-3.71,2.2-7.17-0.23-10.39c0,0-6.61-7.17-19.83-21.52H27.55c-2.68,0-3.15,1.84-2.54,3.36
			c11.24,12.21,17.03,18.66,17.14,18.82c0.02,0.03,0.04,0.05,0.07,0.08v0.03c2.02,3.05,1.98,6.31-0.16,9.79
			C28.28,46.28,16.67,58.23,7.22,67.96C-5,86.62,10.89,119.92,33.94,120.19c3.4,0.11,5.31-0.71,5.73-2.47
			C40.04,115.58,39,114.21,36.52,113.58"/>
		<path class="st4" d="M91.82,87.79c-1.7-1.7-6.27-6.28-13.71-13.73c-4.34-4.13-8.84-3.72-13.49,1.27c0,0-6.54,7.09-19.59,20.95
			v45.01c0,0,10.21,11.08,30.65,33.26h5.29V122.9v-7.89v-1.09c0.13-1.31,0.67-2.48,1.53-3.38c0.03-0.03,0.06-0.07,0.1-0.1
			c0.93-1.01,2.27-2.47,4.01-4.36c1.91-2.08,4.29-4.67,7.17-7.79c2.53-2.75,1.84-6.68-0.57-9.14
			C92.78,88.68,92.28,88.25,91.82,87.79"/>
	</g>
</g>
</svg>
