<?xml version="1.0" encoding="utf-8"?>
<!-- Generator: Adobe Illustrator 24.3.0, SVG Export Plug-In . SVG Version: 6.00 Build 0)  -->
<svg version="1.1" id="Layer_1" xmlns="http://www.w3.org/2000/svg" xmlns:xlink="http://www.w3.org/1999/xlink" x="0px" y="0px"
	 viewBox="0 0 469.16 304.11" style="enable-background:new 0 0 469.16 304.11;" xml:space="preserve">
<style type="text/css">
	.st0{fill:none;stroke:#CCCCCC;stroke-miterlimit:10;}
	.st1{fill:#505557;}
	.st2{fill:#F49020;}
	.st3{fill:#706F6F;}
	.st4{fill:#008D6A;}
	.st5{fill:#008BD2;}
	.st6{fill:#76777A;}
	.st7{fill-rule:evenodd;clip-rule:evenodd;fill:#FF671D;}
	.st8{fill:#FF671D;}
</style>
<g>
	<g>
		<path class="st8" d="M221.88,79.57c-5.68-4.14-9.25-10.84-9.25-18.09c0-12.34,10.03-22.36,22.37-22.36
			c12.34,0,22.38,10.03,22.38,22.36c0,7.25-3.58,13.95-9.26,18.09h64.42c0.01-0.5,0.15-0.96,0.15-1.47
			C312.68,34.97,277.7,0,234.58,0c-43.14,0-78.11,34.97-78.11,78.09c0,0.51,0.13,0.97,0.14,1.47H221.88z"/>
		<path class="st8" d="M240.48,91.44v64.15c35.84-2.72,64.83-29.33,70.86-64.15H240.48z"/>
		<path class="st8" d="M228.61,91.44h-70.8c6.02,34.79,34.98,61.4,70.8,64.15V91.44z"/>
		<path class="st6" d="M406.98,237.13c2.21,0,3.98-1.27,5.33-3.82c1.21-2.33,1.82-5.13,1.82-8.41c0-3.18-0.58-5.86-1.76-8.02
			c-1.32-2.41-3.12-3.63-5.4-3.63h-10.71c-2.27,0-4.07,1.21-5.4,3.63c-1.16,2.16-1.76,4.84-1.76,8.02c0,3.3,0.6,6.11,1.8,8.41
			c1.35,2.55,3.13,3.82,5.36,3.82H406.98z M408.53,246.17h-13.82c-4.97,0-8.88-2.14-11.73-6.39c-2.59-3.82-3.88-8.54-3.88-14.14
			c0-5.69,1.31-10.54,3.94-14.54c2.91-4.45,6.8-6.66,11.67-6.66h13.82c4.86,0,8.75,2.21,11.66,6.66c2.63,4,3.94,8.86,3.94,14.57
			c0,5.61-1.27,10.31-3.84,14.11C417.44,244.03,413.5,246.17,408.53,246.17"/>
		<path class="st6" d="M71.94,237.13c2.21,0,3.98-1.27,5.33-3.82c1.21-2.33,1.82-5.13,1.82-8.41c0-3.18-0.58-5.86-1.76-8.02
			c-1.32-2.41-3.12-3.63-5.4-3.63H61.22c-2.27,0-4.07,1.21-5.4,3.63c-1.16,2.16-1.76,4.84-1.76,8.02c0,3.3,0.6,6.11,1.8,8.41
			c1.35,2.55,3.13,3.82,5.36,3.82H71.94z M73.49,246.17H59.67c-4.97,0-8.88-2.14-11.73-6.39c-2.59-3.82-3.88-8.54-3.88-14.14
			c0-5.69,1.31-10.54,3.94-14.54c2.91-4.45,6.8-6.66,11.67-6.66h13.82c4.87,0,8.76,2.21,11.66,6.66c2.63,4,3.94,8.86,3.94,14.57
			c0,5.61-1.27,10.31-3.84,14.11C82.4,244.03,78.46,246.17,73.49,246.17"/>
		<path class="st6" d="M328.56,246.23h-10.83l-11.97-32.09c-0.07-0.34-0.33-0.51-0.79-0.51c-0.42,0-0.72,0.18-0.93,0.51l-11.7,32.09
			h-10.98c0.62-1.98,1.96-5.92,4.04-11.81c2.06-5.9,4.05-11.48,6.01-16.74c2.17-5.85,3.5-9.1,3.97-9.76
			c0.91-1.16,2.22-2.05,3.94-2.68c1.72-0.61,3.59-0.92,5.62-0.92c2.04,0,3.91,0.31,5.6,0.92c1.72,0.63,3.03,1.51,3.93,2.68
			c0.56,0.68,1.9,3.91,4.05,9.69c1.32,3.55,3.3,9.12,5.93,16.74C326.04,238.97,327.4,242.93,328.56,246.23"/>
		<path class="st6" d="M261.5,237.02c2.39,0,4.32-1.27,5.77-3.82c1.32-2.32,1.99-5.13,1.99-8.4c0-3.19-0.65-5.87-1.91-8.03
			c-1.44-2.41-3.38-3.62-5.85-3.62h-10.57v23.88H261.5z M263.2,246.07h-22.39v-41.72h22.39c5.3,0,9.52,2.2,12.67,6.62
			c2.85,3.98,4.28,8.85,4.28,14.58c0,5.6-1.39,10.32-4.2,14.15C272.82,243.93,268.58,246.07,263.2,246.07"/>
		<path class="st6" d="M39.34,246.14H16.95c-5.37,0-9.62-2.13-12.74-6.38C1.4,235.93,0,231.22,0,225.61
			c0-5.69,1.42-10.54,4.28-14.54c3.15-4.45,7.37-6.65,12.67-6.65h22.39v8.81H18.64c-2.49,0-4.46,1.21-5.89,3.62
			c-1.27,2.16-1.91,4.84-1.91,8.03c0,3.27,0.67,6.08,1.99,8.4c1.47,2.55,3.4,3.82,5.81,3.82h20.71V246.14z"/>
		<path class="st6" d="M132.76,225.23c0.92,1.1,1.63,2.34,2.08,3.7c0.47,1.37,0.7,2.83,0.7,4.38c0,3.41-1.04,6.31-3.11,8.73
			c-2.31,2.7-5.39,4.03-9.31,4.03H97.08v-8.71h24.37c1.13,0,2.02-0.4,2.7-1.19c0.6-0.71,0.9-1.58,0.9-2.63
			c0-1.03-0.27-1.87-0.86-2.52c-0.65-0.76-1.56-1.13-2.74-1.13H97.08v-9.3h24.37c1.15,0,2.04-0.36,2.66-1.07
			c0.62-0.72,0.93-1.57,0.93-2.55c0-1.04-0.3-1.92-0.9-2.62c-0.68-0.8-1.57-1.2-2.7-1.2H97.08v-8.82h26.04c3.88,0,7,1.36,9.34,4.11
			c2.14,2.48,3.2,5.44,3.2,8.88c0,1.53-0.24,2.97-0.72,4.34C134.44,223.03,133.71,224.22,132.76,225.23"/>
		<path class="st6" d="M180.64,246.07h-26.05c-3.91,0-6.99-1.33-9.27-4c-2.05-2.38-3.07-5.33-3.07-8.82c0-3.15,0.86-5.86,2.59-8.17
			c-1.73-2.3-2.59-4.99-2.59-8.09c0-3.4,1.03-6.31,3.07-8.7c2.28-2.64,5.36-3.95,9.27-3.95h26.05v8.81h-24.37
			c-1.1,0-1.96,0.39-2.6,1.14c-0.63,0.77-0.95,1.66-0.95,2.69c0,1,0.3,1.85,0.92,2.55c0.61,0.71,1.48,1.07,2.64,1.07h24.37v8.76
			v0.25h-25.76c-0.68,0.26-1.2,0.74-1.59,1.43c-0.39,0.69-0.58,1.43-0.58,2.27c0,1.02,0.3,1.91,0.92,2.65
			c0.61,0.76,1.48,1.13,2.64,1.13h24.37V246.07z"/>
		<path class="st6" d="M226.2,246.07h-18.26c-5.77,0-10.35-1.32-13.72-3.96c-2.64-2.08-4.53-4.89-5.63-8.46
			c-0.73-2.36-1.09-4.9-1.09-7.66c0-0.63,0.01-1.08,0.03-1.33c0.01-0.28,0.03-0.5,0.09-0.71v-19.6h10.12v19.6
			c0,3.53,0.81,6.5,2.43,8.92c1.88,2.77,4.47,4.16,7.77,4.16h18.26V246.07z"/>
		<path class="st6" d="M372.87,246.07l-28.83-10.37v10.37h-9.96v-13.84c0-3.32,0.89-6.01,2.7-8.06c2.09-2.38,5.18-3.58,9.26-3.58
			h12.41c1.16,0,2.04-0.37,2.67-1.07c0.63-0.72,0.94-1.57,0.94-2.54c0-1.05-0.3-1.92-0.9-2.64c-0.68-0.79-1.57-1.19-2.7-1.19h-24.37
			v-8.81h26.05c3.9,0,6.99,1.3,9.27,3.92c2.05,2.37,3.07,5.28,3.07,8.7c0,3.42-1.02,6.31-3.07,8.67c-2.28,2.65-5.37,3.97-9.27,3.97
			h-6.29l19.04,6.63V246.07z"/>
		<path class="st6" d="M469.16,231.11c0,4.83-2.05,8.67-6.15,11.54c-3.7,2.6-8.07,3.89-13.42,3.89c-5.2,0-9.58-1.27-13.12-3.83
			c-3.98-2.84-5.96-6.71-5.96-11.61v-26.78h9.93v25.28c0,2.18,1.02,3.92,3.07,5.25c1.88,1.2,4.14,1.81,6.8,1.81
			c2.54,0,4.54-0.58,6.28-1.74c1.95-1.31,2.92-3.07,2.92-5.32v-25.28h9.64V231.11z"/>
	</g>
	<g>
		<g>
			<path class="st6" d="M252.12,271.93c-1.34-0.22-2.65-0.38-3.93-0.47c-1.28-0.09-2.61-0.14-3.98-0.14c-2.67,0-4.95,0.19-6.82,0.56
				c-1.88,0.37-3.41,1.04-4.6,2.01c-1.19,0.97-2.05,2.3-2.59,4.01c-0.54,1.71-0.81,3.88-0.81,6.52c0,2.71,0.25,4.92,0.75,6.63
				c0.5,1.71,1.32,3.04,2.45,3.98c1.13,0.95,2.65,1.61,4.54,2.01c1.89,0.39,4.21,0.58,6.96,0.58c1.37,0,2.71-0.05,4.01-0.14
				c1.3-0.09,2.6-0.27,3.9-0.53c1.15-0.15,1.89-0.4,2.23-0.75c0.33-0.35,0.5-0.77,0.5-1.25v-1.28c-0.86,0.26-1.88,0.51-3.06,0.75
				c-1.19,0.24-2.41,0.42-3.68,0.53c-1.26,0.11-2.39,0.17-3.4,0.17c-2.79,0-4.97-0.32-6.54-0.95c-1.58-0.63-2.68-1.72-3.31-3.26
				c-0.63-1.54-0.95-3.7-0.95-6.49c0-2.79,0.33-4.94,1-6.46c0.67-1.52,1.77-2.59,3.31-3.2c1.54-0.61,3.61-0.92,6.21-0.92
				c1.04,0,2.23,0.06,3.57,0.17c1.34,0.11,2.64,0.29,3.9,0.53c1.26,0.24,2.95,0.86,2.95,0.86v-1.39c0-0.56-0.16-0.99-0.47-1.31
				C253.95,272.37,253.23,272.12,252.12,271.93z"/>
			<path class="st6" d="M275.51,276.67c-0.97-0.78-2.13-1.3-3.48-1.56c-1.36-0.26-2.87-0.39-4.54-0.39c-1.71,0-3.24,0.13-4.59,0.39
				c-1.36,0.26-2.53,0.78-3.51,1.56c-0.99,0.78-1.74,1.93-2.26,3.45c-0.52,1.52-0.78,3.53-0.78,6.02s0.26,4.49,0.78,6.01
				c0.52,1.52,1.27,2.67,2.26,3.45c0.98,0.78,2.15,1.3,3.51,1.56c1.35,0.26,2.89,0.39,4.59,0.39c1.67,0,3.18-0.13,4.54-0.39
				c1.35-0.26,2.52-0.77,3.48-1.53c0.97-0.76,1.71-1.9,2.23-3.43c0.52-1.52,0.78-3.55,0.78-6.07c0-2.49-0.26-4.49-0.78-6.02
				C277.22,278.6,276.48,277.45,275.51,276.67z M273.73,292.1c-0.56,1.3-1.36,2.17-2.42,2.62c-1.06,0.45-2.33,0.67-3.82,0.67
				c-1.49,0-2.76-0.22-3.81-0.67c-1.06-0.45-1.88-1.32-2.45-2.62c-0.58-1.3-0.86-3.29-0.86-5.96c0-2.67,0.29-4.66,0.86-5.96
				c0.57-1.3,1.39-2.17,2.45-2.62c1.06-0.45,2.33-0.67,3.81-0.67c1.48,0,2.76,0.22,3.82,0.67c1.06,0.45,1.87,1.32,2.42,2.62
				c0.56,1.3,0.84,3.29,0.84,5.96C274.56,288.81,274.29,290.8,273.73,292.1z"/>
			<path class="st6" d="M325.11,275.67c-1.43-0.63-3.33-0.95-5.71-0.95c-3.08,0-5.48,0.41-7.19,1.23c-1.71,0.82-2.9,2.08-3.57,3.79
				c-0.67,1.71-1,3.9-1,6.57c0,2.34,0.19,4.24,0.59,5.71c0.39,1.47,1.02,2.61,1.89,3.43c0.87,0.82,2.04,1.37,3.51,1.67
				c1.47,0.3,3.28,0.45,5.43,0.45c1.93,0,3.59-0.06,4.99-0.17c1.39-0.11,2.5-0.33,3.31-0.67c0.63-0.22,1.05-0.5,1.25-0.83
				c0.2-0.33,0.31-0.69,0.31-1.06v-0.67c-0.3,0.15-0.81,0.29-1.53,0.42c-0.72,0.13-1.55,0.23-2.48,0.31
				c-0.93,0.08-1.85,0.14-2.76,0.2c-0.91,0.05-1.72,0.08-2.42,0.08c-2.04,0-3.66-0.23-4.85-0.7c-1.19-0.46-2.03-1.34-2.53-2.62
				c-0.5-1.28-0.75-3.15-0.75-5.6c0-2.3,0.22-4.12,0.67-5.46c0.45-1.34,1.23-2.3,2.34-2.9c1.11-0.59,2.65-0.89,4.62-0.89
				c2.34,0,3.98,0.52,4.93,1.56c0.95,1.04,1.44,2.71,1.48,5.01l0.06,1.62h-10.64c-0.59,0-1,0.16-1.23,0.47
				c-0.22,0.32-0.33,1.42-0.33,1.86h15.71v-3.9c0-2.08-0.33-3.77-0.97-5.07C327.58,277.26,326.54,276.3,325.11,275.67z"/>
			<path class="st6" d="M340.34,295.49c-0.45,0.08-0.8,0.11-1.06,0.11c-0.93,0-1.55-0.32-1.87-0.95c-0.32-0.63-0.47-1.65-0.47-3.06
				v-20.11c0-0.67,0-2.36,0-2.39h-2.23c-0.45,0-0.79,0.06-1.03,0.17c-0.24,0.11-0.4,0.31-0.47,0.59c-0.08,0.28-0.11,0.64-0.11,1.09
				v21.28c0,1.97,0.37,3.33,1.11,4.09c0.74,0.76,1.97,1.14,3.68,1.14c1,0,1.75-0.06,2.25-0.17c0.5-0.11,0.86-0.19,1.09-0.22v-1.73
				C341.09,295.36,340.79,295.42,340.34,295.49z"/>
			<path class="st6" d="M300.21,276c-1.47-0.7-3.5-1.06-6.1-1.06c-0.52,0-1.17,0.02-1.95,0.05c-0.78,0.04-1.58,0.07-2.39,0.08
				c-0.56,0.01-1.05,0.03-1.5,0.05v2.26c0.38-0.02,0.79-0.03,1.25-0.06c0.72-0.04,1.44-0.06,2.15-0.08c0.7-0.02,1.32-0.03,1.84-0.03
				c1.63,0,2.95,0.29,3.95,0.86c1,0.58,1.74,1.49,2.2,2.73c0.46,1.24,0.71,2.94,0.75,5.1c0,2.64-0.23,4.61-0.7,5.93
				c-0.46,1.32-1.23,2.19-2.28,2.62c-1.06,0.43-2.55,0.64-4.48,0.64c-1.41,0-2.54-0.1-3.4-0.31c-0.85-0.2-1.48-0.58-1.89-1.14
				c-0.41-0.56-0.68-1.37-0.81-2.45c-0.13-1.08-0.2-2.51-0.2-4.29v-17.82h-3.9l0.06,17.38c0,2.41,0.13,4.34,0.39,5.79
				c0.26,1.45,0.74,2.54,1.45,3.29c0.71,0.74,1.74,1.23,3.09,1.48c1.35,0.24,3.07,0.36,5.15,0.36c1.74,0,3.32-0.08,4.73-0.25
				c1.41-0.17,2.61-0.6,3.59-1.31c0.98-0.7,1.74-1.83,2.28-3.37c0.54-1.54,0.81-3.67,0.81-6.38c-0.04-2.75-0.36-4.94-0.97-6.57
				C302.72,277.87,301.68,276.71,300.21,276z"/>
		</g>
		<g>
			<path class="st6" d="M360.91,283.07c-0.32,0.15-0.52,0.39-0.61,0.72s-0.14,0.83-0.14,1.5h10.53c0,0.19,0.01,0.46,0.03,0.81
				c0.02,0.35,0.01,0.77-0.03,1.25c-0.04,2.08-0.35,3.7-0.95,4.85c-0.59,1.15-1.52,1.93-2.79,2.34c-1.26,0.41-2.97,0.61-5.12,0.61
				c-2.38,0-4.26-0.32-5.65-0.97c-1.39-0.65-2.38-1.75-2.95-3.31c-0.58-1.56-0.86-3.7-0.86-6.41c0-2.82,0.32-5,0.97-6.54
				s1.72-2.63,3.2-3.26c1.49-0.63,3.53-0.95,6.13-0.95c0.56,0,1.25,0.01,2.09,0.03c0.84,0.02,1.72,0.08,2.65,0.17
				c0.93,0.09,1.83,0.19,2.7,0.31c0.87,0.11,1.64,0.24,2.31,0.39c0.67,0.15,1.13,0.33,1.39,0.56v-1.11c0-0.3-0.05-0.59-0.14-0.86
				c-0.09-0.28-0.32-0.53-0.67-0.75c-0.35-0.22-0.9-0.39-1.64-0.5c-1.15-0.26-2.52-0.44-4.09-0.53c-1.58-0.09-3.3-0.14-5.15-0.14
				c-2.27,0-4.27,0.18-6.02,0.53c-1.74,0.35-3.22,0.99-4.43,1.92c-1.21,0.93-2.13,2.26-2.76,3.98c-0.63,1.73-0.95,3.98-0.95,6.77
				c0,2.53,0.24,4.63,0.72,6.32c0.48,1.69,1.25,3.04,2.31,4.07s2.46,1.74,4.21,2.14c1.74,0.41,3.9,0.61,6.46,0.61
				c2.45,0,4.52-0.17,6.21-0.5c1.69-0.33,3.04-0.9,4.07-1.7c1.02-0.8,1.76-1.86,2.23-3.17c0.46-1.32,0.7-2.98,0.7-4.99v-4.4h-12.48
				C361.72,282.85,361.23,282.93,360.91,283.07z"/>
			<path class="st6" d="M415.13,276.67c-0.97-0.78-2.13-1.3-3.48-1.56c-1.36-0.26-2.87-0.39-4.54-0.39c-1.71,0-3.24,0.13-4.59,0.39
				c-1.36,0.26-2.53,0.78-3.51,1.56c-0.99,0.78-1.74,1.93-2.26,3.45c-0.52,1.52-0.78,3.53-0.78,6.02s0.26,4.49,0.78,6.01
				c0.52,1.52,1.27,2.67,2.26,3.45c0.98,0.78,2.15,1.3,3.51,1.56c1.35,0.26,2.89,0.39,4.59,0.39c1.67,0,3.18-0.13,4.54-0.39
				c1.35-0.26,2.52-0.77,3.48-1.53c0.97-0.76,1.71-1.9,2.23-3.43c0.52-1.52,0.78-3.55,0.78-6.07c0-2.49-0.26-4.49-0.78-6.02
				C416.84,278.6,416.1,277.45,415.13,276.67z M413.35,292.1c-0.56,1.3-1.36,2.17-2.42,2.62c-1.06,0.45-2.33,0.67-3.82,0.67
				c-1.49,0-2.76-0.22-3.81-0.67c-1.06-0.45-1.88-1.32-2.45-2.62c-0.58-1.3-0.86-3.29-0.86-5.96c0-2.67,0.29-4.66,0.86-5.96
				c0.57-1.3,1.39-2.17,2.45-2.62c1.06-0.45,2.33-0.67,3.81-0.67c1.48,0,2.76,0.22,3.82,0.67c1.06,0.45,1.87,1.32,2.42,2.62
				c0.56,1.3,0.84,3.29,0.84,5.96C414.19,288.81,413.91,290.8,413.35,292.1z"/>
			<path class="st6" d="M442.15,275.08c-0.26-0.05-0.61-0.08-1.06-0.08c-0.07,0-0.22,0-0.45,0c-0.22,0-0.46,0-0.7,0s-0.46,0-0.67,0
				c-0.2,0-0.33,0-0.36,0v15.1c0,1.78-0.51,3.07-1.53,3.87c-1.02,0.8-2.7,1.2-5.04,1.2c-2.19,0-3.82-0.38-4.87-1.14
				c-1.06-0.76-1.59-2.07-1.59-3.93V275c-0.41,0-0.81,0-1.2,0c-0.39,0-0.79,0-1.2,0c-0.59,0-0.99,0.11-1.2,0.33
				c-0.2,0.22-0.31,0.65-0.31,1.28v13.03c0,1.97,0.32,3.53,0.95,4.68c0.63,1.15,1.7,1.97,3.2,2.45s3.55,0.72,6.15,0.72
				c2.86,0,5.05-0.29,6.57-0.86c1.52-0.57,2.56-1.47,3.12-2.67c0.56-1.21,0.83-2.74,0.83-4.6v-12.75c0-0.52-0.05-0.89-0.14-1.11
				C442.58,275.28,442.41,275.14,442.15,275.08z"/>
			<path class="st6" d="M468.27,279.79c-0.71-1.71-1.9-2.96-3.59-3.76c-1.69-0.8-4.04-1.2-7.05-1.2c-0.85,0-1.81,0.03-2.87,0.08
				c-1.06,0.06-2.09,0.11-3.09,0.17c-1,0.06-1.89,0.12-2.67,0.2c-0.78,0.07-1.3,0.15-1.56,0.22c0.04,0.22,0.06,0.72,0.08,1.48
				c0.02,0.76,0.03,1.66,0.03,2.7l-0.05,23.5h3.95V277.5c0.37-0.07,0.94-0.14,1.7-0.19c0.76-0.06,1.56-0.1,2.4-0.14
				c0.83-0.04,1.53-0.05,2.09-0.05c2.9,0,4.9,0.67,6.02,2c1.11,1.33,1.63,3.63,1.56,6.91h0c0,0.04,0,0.08,0,0.12
				c0,0.2-0.01,0.38-0.01,0.57c-0.01,0.32-0.02,0.63-0.04,0.92c-0.01,0.12-0.02,0.24-0.02,0.36c-0.11,1.38-0.33,2.53-0.67,3.43
				c-0.46,1.24-1.2,2.15-2.2,2.73c-1,0.58-2.32,0.86-3.95,0.86c-0.52,0-1.13-0.01-1.84-0.03c-0.71-0.02-1.42-0.05-2.14-0.08
				c-0.46-0.02-1.25,2.2-1.25,2.2c0.46,0.02,0.94,0.04,1.5,0.05c0.82,0.02,1.61,0.05,2.39,0.08c0.78,0.04,1.43,0.05,1.95,0.05
				c2.6,0,4.63-0.35,6.1-1.06c1.47-0.71,2.51-1.88,3.12-3.51c0.56-1.49,0.87-3.47,0.95-5.89c0.01-0.15,0.02-0.28,0.02-0.43
				c0-0.09,0-0.16,0-0.25c0,0,0,0,0-0.01c0,0,0,0,0,0C469.22,283.57,468.95,281.44,468.27,279.79z"/>
			<path class="st6" d="M384.41,276.76c-0.85,0.8-1.47,1.91-1.85,3.34c-0.36,1.37-0.55,3.14-0.56,5.28c0,0.02-0.01,0.04-0.01,0.06
				v0.22c0,0,0,0,0,0.01c0,0,0,0,0,0v9.81c0,0.67,0.12,1.12,0.36,1.37c0.24,0.24,0.6,0.36,1.09,0.36h2.45v-12.97
				c0.08-1.67,0.31-3,0.69-3.98c0.49-1.25,1.31-2.1,2.47-2.55c0.78-0.31,1.77-0.5,2.93-0.6v-2.4c-1.6,0.04-2.99,0.18-4.15,0.41
				C386.41,275.42,385.27,275.97,384.41,276.76z"/>
		</g>
		<g>
			<path class="st6" d="M87.27,297.22h-1.35v-1.48c-1.09,1.2-2.51,1.79-4.27,1.79c-1.16,0-2.18-0.38-3.07-1.13
				c-0.88-0.75-1.33-1.77-1.33-3.06c0-1.3,0.44-2.32,1.31-3.06c0.88-0.74,1.9-1.11,3.08-1.11c1.77,0,3.19,0.6,4.27,1.79v-2.55
				c0-0.9-0.32-1.61-0.96-2.12c-0.64-0.51-1.45-0.77-2.42-0.77c-1.54,0-2.85,0.62-3.93,1.85l-0.75-0.94c1.3-1.4,2.91-2.11,4.84-2.11
				c1.35,0,2.45,0.34,3.3,1.01c0.85,0.68,1.27,1.68,1.27,3.02V297.22z M82.12,296.46c1.65,0,2.91-0.57,3.8-1.72v-2.76
				c-0.9-1.16-2.17-1.74-3.8-1.74c-1.02,0-1.85,0.29-2.48,0.88c-0.63,0.59-0.95,1.34-0.95,2.24c0,0.9,0.32,1.64,0.95,2.22
				C80.27,296.17,81.09,296.46,82.12,296.46z"/>
			<path class="st6" d="M114.53,297.22h-1.35v-8.79c0-1.91-0.84-2.86-2.52-2.86c-0.66,0-1.33,0.21-2.02,0.62
				c-0.69,0.42-1.21,0.92-1.57,1.51v9.52h-1.38v-8.79c0-1.91-0.84-2.86-2.52-2.86c-0.64,0-1.3,0.21-1.98,0.64s-1.21,0.93-1.61,1.52
				v9.49h-1.35v-12.56h1.35v1.9c0.31-0.5,0.86-1,1.65-1.48s1.59-0.73,2.41-0.73c0.92,0,1.66,0.23,2.21,0.68
				c0.56,0.45,0.92,1.01,1.09,1.69c0.38-0.62,0.96-1.17,1.74-1.65c0.78-0.48,1.59-0.72,2.42-0.72c2.29,0,3.43,1.27,3.43,3.82V297.22
				z"/>
			<path class="st6" d="M124.3,297.53c-1.84,0-3.35-0.62-4.53-1.85c-1.18-1.23-1.77-2.82-1.77-4.76c0-1.84,0.58-3.39,1.73-4.67
				c1.15-1.27,2.6-1.91,4.33-1.91c1.84,0,3.29,0.64,4.34,1.91c1.06,1.27,1.59,2.86,1.59,4.75v0.36h-10.51
				c0.07,1.42,0.55,2.61,1.43,3.56c0.88,0.95,2.05,1.43,3.49,1.43c1.66,0,3.03-0.58,4.11-1.74l0.7,0.88
				C127.92,296.85,126.28,297.53,124.3,297.53z M128.62,290.3c-0.02-1.21-0.42-2.31-1.21-3.3c-0.79-0.99-1.91-1.48-3.37-1.48
				c-1.37,0-2.46,0.49-3.26,1.47c-0.81,0.98-1.24,2.09-1.29,3.32H128.62z"/>
			<path class="st6" d="M149.79,297.22h-1.35v-8.79c0-1.91-0.84-2.86-2.52-2.86c-0.66,0-1.33,0.21-2.02,0.62
				c-0.69,0.42-1.21,0.92-1.57,1.51v9.52h-1.38v-8.79c0-1.91-0.84-2.86-2.52-2.86c-0.64,0-1.3,0.21-1.98,0.64s-1.21,0.93-1.61,1.52
				v9.49h-1.35v-12.56h1.35v1.9c0.31-0.5,0.86-1,1.65-1.48s1.59-0.73,2.41-0.73c0.92,0,1.66,0.23,2.21,0.68
				c0.56,0.45,0.92,1.01,1.09,1.69c0.38-0.62,0.96-1.17,1.74-1.65c0.78-0.48,1.59-0.72,2.42-0.72c2.29,0,3.43,1.27,3.43,3.82V297.22
				z"/>
			<path class="st6" d="M155.36,297.22h-1.35v-17.35h1.35v6.81c1.11-1.56,2.57-2.34,4.37-2.34c1.68,0,3.04,0.6,4.07,1.81
				c1.03,1.21,1.55,2.81,1.55,4.8c0,1.99-0.52,3.59-1.55,4.79c-1.03,1.2-2.39,1.79-4.07,1.79c-0.9,0-1.74-0.22-2.51-0.65
				c-0.77-0.43-1.39-0.99-1.86-1.67V297.22z M155.36,294.07c0.38,0.62,0.95,1.15,1.72,1.59c0.76,0.43,1.57,0.65,2.42,0.65
				c1.37,0,2.45-0.5,3.23-1.51c0.78-1.01,1.17-2.29,1.17-3.85c0-1.58-0.39-2.87-1.17-3.88c-0.78-1.01-1.86-1.51-3.23-1.51
				c-0.83,0-1.63,0.23-2.41,0.68c-0.77,0.45-1.35,0.99-1.73,1.61V294.07z"/>
			<path class="st6" d="M174.43,297.53c-1.84,0-3.35-0.62-4.53-1.85c-1.18-1.23-1.77-2.82-1.77-4.76c0-1.84,0.58-3.39,1.73-4.67
				c1.15-1.27,2.6-1.91,4.33-1.91c1.84,0,3.29,0.64,4.34,1.91c1.06,1.27,1.59,2.86,1.59,4.75v0.36h-10.51
				c0.07,1.42,0.55,2.61,1.43,3.56c0.88,0.95,2.05,1.43,3.49,1.43c1.66,0,3.03-0.58,4.11-1.74l0.7,0.88
				C178.04,296.85,176.4,297.53,174.43,297.53z M178.74,290.3c-0.02-1.21-0.42-2.31-1.21-3.3c-0.79-0.99-1.91-1.48-3.37-1.48
				c-1.37,0-2.46,0.49-3.26,1.47c-0.81,0.98-1.24,2.09-1.29,3.32H178.74z"/>
			<path class="st6" d="M184.96,297.22h-1.35v-12.56h1.35v2.16c1.23-1.61,2.64-2.42,4.24-2.42v1.48c-0.16-0.03-0.38-0.05-0.68-0.05
				c-0.62,0-1.3,0.23-2.03,0.7c-0.73,0.47-1.24,0.98-1.53,1.53V297.22z"/>
			<path class="st6" d="M203.89,297.53c-1.8,0-3.26-0.63-4.37-1.9s-1.66-2.84-1.66-4.71s0.55-3.44,1.66-4.69
				c1.11-1.26,2.57-1.89,4.37-1.89c1.82,0,3.29,0.63,4.4,1.89c1.11,1.26,1.66,2.82,1.66,4.69s-0.56,3.44-1.66,4.71
				C207.18,296.89,205.71,297.53,203.89,297.53z M203.89,296.31c1.42,0,2.54-0.52,3.37-1.57c0.82-1.05,1.24-2.32,1.24-3.81
				c0-1.47-0.41-2.73-1.24-3.78c-0.82-1.05-1.95-1.57-3.37-1.57c-1.4,0-2.52,0.52-3.34,1.57c-0.82,1.05-1.24,2.31-1.24,3.78
				c0,1.47,0.41,2.74,1.24,3.8C201.37,295.78,202.49,296.31,203.89,296.31z"/>
			<path class="st6" d="M215.23,297.22h-1.35v-11.37h-2.08v-1.2h2.08v-1.14c0-1.21,0.3-2.17,0.91-2.86c0.61-0.69,1.44-1.04,2.5-1.04
				c0.92,0,1.72,0.3,2.39,0.88l-0.65,0.94c-0.47-0.43-1.01-0.65-1.61-0.65c-1.46,0-2.19,0.91-2.19,2.73v1.14h2.55v1.2h-2.55V297.22z
				"/>
		</g>
	</g>
</g>
</svg>
