<?xml version="1.0" encoding="utf-8"?>
<!-- Generator: Adobe Illustrator 24.3.0, SVG Export Plug-In . SVG Version: 6.00 Build 0)  -->
<svg version="1.1" id="Layer_1" xmlns="http://www.w3.org/2000/svg" xmlns:xlink="http://www.w3.org/1999/xlink" x="0px" y="0px"
	 viewBox="0 0 469.16 321.91" style="enable-background:new 0 0 469.16 321.91;" xml:space="preserve">
<style type="text/css">
	.st0{fill:none;stroke:#CCCCCC;stroke-miterlimit:10;}
	.st1{fill:#505557;}
	.st2{fill:#F49020;}
	.st3{fill:#706F6F;}
	.st4{fill:#008D6A;}
	.st5{fill:#008BD2;}
	.st6{fill:#76777A;}
	.st7{fill-rule:evenodd;clip-rule:evenodd;fill:#FF671D;}
	.st8{fill:#FF671D;}
</style>
<g>
	<path class="st8" d="M221.88,79.57c-5.68-4.14-9.25-10.84-9.25-18.09c0-12.34,10.03-22.36,22.37-22.36
		c12.34,0,22.38,10.03,22.38,22.36c0,7.25-3.58,13.95-9.26,18.09h64.42c0.01-0.5,0.15-0.96,0.15-1.47C312.68,34.97,277.7,0,234.58,0
		c-43.14,0-78.11,34.97-78.11,78.09c0,0.51,0.13,0.97,0.14,1.47H221.88z"/>
	<path class="st8" d="M240.48,91.44v64.15c35.84-2.72,64.83-29.33,70.86-64.15H240.48z"/>
	<path class="st8" d="M228.62,91.44h-70.8c6.02,34.79,34.98,61.4,70.8,64.15V91.44z"/>
	<path class="st6" d="M406.98,237.13c2.21,0,3.98-1.27,5.33-3.82c1.21-2.33,1.82-5.13,1.82-8.41c0-3.18-0.58-5.86-1.76-8.02
		c-1.32-2.41-3.12-3.63-5.4-3.63h-10.71c-2.27,0-4.07,1.21-5.4,3.63c-1.16,2.16-1.76,4.84-1.76,8.02c0,3.3,0.6,6.11,1.8,8.41
		c1.35,2.55,3.13,3.82,5.36,3.82H406.98z M408.53,246.17h-13.82c-4.97,0-8.88-2.14-11.73-6.39c-2.59-3.82-3.88-8.54-3.88-14.14
		c0-5.69,1.31-10.54,3.94-14.54c2.91-4.45,6.8-6.66,11.67-6.66h13.82c4.86,0,8.75,2.21,11.66,6.66c2.63,4,3.94,8.86,3.94,14.57
		c0,5.61-1.27,10.31-3.84,14.11C417.44,244.03,413.5,246.17,408.53,246.17"/>
	<path class="st6" d="M71.94,237.13c2.21,0,3.98-1.27,5.33-3.82c1.21-2.33,1.82-5.13,1.82-8.41c0-3.18-0.58-5.86-1.76-8.02
		c-1.32-2.41-3.12-3.63-5.4-3.63H61.22c-2.27,0-4.07,1.21-5.4,3.63c-1.16,2.16-1.76,4.84-1.76,8.02c0,3.3,0.6,6.11,1.8,8.41
		c1.35,2.55,3.13,3.82,5.36,3.82H71.94z M73.49,246.17H59.67c-4.97,0-8.88-2.14-11.73-6.39c-2.59-3.82-3.88-8.54-3.88-14.14
		c0-5.69,1.31-10.54,3.94-14.54c2.91-4.45,6.8-6.66,11.67-6.66h13.82c4.87,0,8.76,2.21,11.66,6.66c2.63,4,3.94,8.86,3.94,14.57
		c0,5.61-1.27,10.31-3.84,14.11C82.4,244.03,78.46,246.17,73.49,246.17"/>
	<path class="st6" d="M328.56,246.23h-10.83l-11.97-32.09c-0.07-0.34-0.33-0.51-0.79-0.51c-0.42,0-0.72,0.18-0.93,0.51l-11.7,32.09
		h-10.98c0.62-1.98,1.96-5.92,4.04-11.81c2.06-5.9,4.05-11.48,6.01-16.74c2.17-5.85,3.5-9.1,3.97-9.76
		c0.91-1.16,2.22-2.05,3.94-2.68c1.72-0.61,3.59-0.92,5.62-0.92c2.04,0,3.91,0.31,5.6,0.92c1.72,0.63,3.03,1.51,3.93,2.68
		c0.56,0.68,1.9,3.91,4.05,9.69c1.32,3.55,3.3,9.12,5.93,16.74C326.04,238.97,327.4,242.93,328.56,246.23"/>
	<path class="st6" d="M261.5,237.02c2.39,0,4.32-1.27,5.77-3.82c1.32-2.32,1.99-5.13,1.99-8.4c0-3.19-0.65-5.87-1.91-8.03
		c-1.44-2.41-3.38-3.62-5.85-3.62h-10.57v23.88H261.5z M263.2,246.07h-22.39v-41.72h22.39c5.3,0,9.52,2.2,12.67,6.62
		c2.85,3.98,4.28,8.85,4.28,14.58c0,5.6-1.39,10.32-4.2,14.15C272.82,243.93,268.58,246.07,263.2,246.07"/>
	<path class="st6" d="M39.34,246.14H16.95c-5.37,0-9.62-2.13-12.74-6.38C1.4,235.93,0,231.22,0,225.61c0-5.69,1.42-10.54,4.28-14.54
		c3.15-4.45,7.37-6.65,12.67-6.65h22.39v8.81H18.64c-2.49,0-4.46,1.21-5.89,3.62c-1.27,2.16-1.91,4.84-1.91,8.03
		c0,3.27,0.67,6.08,1.99,8.4c1.47,2.55,3.4,3.82,5.81,3.82h20.71V246.14z"/>
	<path class="st6" d="M132.76,225.23c0.92,1.1,1.63,2.34,2.08,3.7c0.47,1.37,0.7,2.83,0.7,4.38c0,3.41-1.04,6.31-3.11,8.73
		c-2.31,2.7-5.39,4.03-9.31,4.03H97.08v-8.71h24.37c1.13,0,2.02-0.4,2.7-1.19c0.6-0.71,0.9-1.58,0.9-2.63
		c0-1.03-0.27-1.87-0.86-2.52c-0.65-0.76-1.56-1.13-2.74-1.13H97.08v-9.3h24.37c1.15,0,2.04-0.36,2.66-1.07
		c0.62-0.72,0.93-1.57,0.93-2.55c0-1.04-0.3-1.92-0.9-2.62c-0.68-0.8-1.57-1.2-2.7-1.2H97.08v-8.82h26.04c3.88,0,7,1.36,9.34,4.11
		c2.14,2.48,3.2,5.44,3.2,8.88c0,1.53-0.24,2.97-0.72,4.34C134.44,223.03,133.71,224.22,132.76,225.23"/>
	<path class="st6" d="M180.64,246.07h-26.05c-3.91,0-6.99-1.33-9.27-4c-2.05-2.38-3.07-5.33-3.07-8.82c0-3.15,0.86-5.86,2.59-8.17
		c-1.73-2.3-2.59-4.99-2.59-8.09c0-3.4,1.03-6.31,3.07-8.7c2.28-2.64,5.36-3.95,9.27-3.95h26.05v8.81h-24.37
		c-1.1,0-1.96,0.39-2.6,1.14c-0.63,0.77-0.95,1.66-0.95,2.69c0,1,0.3,1.85,0.92,2.55c0.61,0.71,1.48,1.07,2.64,1.07h24.37v8.76v0.25
		h-25.76c-0.68,0.26-1.2,0.74-1.59,1.43c-0.39,0.69-0.58,1.43-0.58,2.27c0,1.02,0.3,1.91,0.92,2.65c0.61,0.76,1.48,1.13,2.64,1.13
		h24.37V246.07z"/>
	<path class="st6" d="M226.2,246.07h-18.26c-5.77,0-10.35-1.32-13.72-3.96c-2.64-2.08-4.53-4.89-5.63-8.46
		c-0.73-2.36-1.09-4.9-1.09-7.66c0-0.63,0.01-1.08,0.03-1.33c0.01-0.28,0.03-0.5,0.09-0.71v-19.6h10.12v19.6
		c0,3.53,0.81,6.5,2.43,8.92c1.88,2.77,4.47,4.16,7.77,4.16h18.26V246.07z"/>
	<path class="st6" d="M372.87,246.07l-28.83-10.37v10.37h-9.96v-13.84c0-3.32,0.89-6.01,2.7-8.06c2.09-2.38,5.18-3.58,9.26-3.58
		h12.41c1.16,0,2.04-0.37,2.67-1.07c0.63-0.72,0.94-1.57,0.94-2.54c0-1.05-0.3-1.92-0.9-2.64c-0.68-0.79-1.57-1.19-2.7-1.19h-24.37
		v-8.81h26.05c3.9,0,6.99,1.3,9.27,3.92c2.05,2.37,3.07,5.28,3.07,8.7c0,3.42-1.02,6.31-3.07,8.67c-2.28,2.65-5.37,3.97-9.27,3.97
		h-6.29l19.04,6.63V246.07z"/>
	<path class="st6" d="M469.16,231.11c0,4.83-2.05,8.67-6.15,11.54c-3.7,2.6-8.07,3.89-13.42,3.89c-5.2,0-9.58-1.27-13.12-3.83
		c-3.98-2.84-5.96-6.71-5.96-11.61v-26.78h9.93v25.28c0,2.18,1.02,3.92,3.07,5.25c1.88,1.2,4.14,1.81,6.8,1.81
		c2.54,0,4.54-0.58,6.28-1.74c1.95-1.31,2.92-3.07,2.92-5.32v-25.28h9.64V231.11z"/>
</g>
</svg>
