<svg xmlns="http://www.w3.org/2000/svg" width="120" height="60" viewBox="0 0 120 60">
    <g>
        <g transform="translate(0 47.59)" fill="#ffffff">
            <path d="M3.88043418 12.0139535C3.11510085 12.1860465 2.43843418 12.1767442 1.85043418 11.972093 1.26243418 11.7674419.819100845 11.4232558.520434179 10.9302326.221767512 10.4372093.0491008454 9.81860465.00710084544 9.07906977-.0348991546 8.33953488.109767512 7.52093023.431767512 6.61860465L1.43043418 7.01395349C.945100845 8.39534884.907767512 9.45116279 1.32310085 10.172093 1.73843418 10.8930233 2.50843418 11.1255814 3.63776751 10.8697674 4.43576751 10.6790698 4.93976751 10.5162791 5.16376751 10.3813953 5.55110085 10.1395349 5.70043418 9.7255814 5.61643418 9.13488372L5.16376751 6.02790698 6.19976751 5.85581395 6.66643418 8.9627907C6.73643418 9.45581395 6.71776751 9.8744186 6.61510085 10.227907 6.51243418 10.5813953 6.32110085 10.8697674 6.04576751 11.0930233 5.77043418 11.3209302 5.46243418 11.5023256 5.13110085 11.6372093 4.79976751 11.772093 4.37976751 11.8976744 3.88043418 12.0093023L3.88043418 12.0139535ZM3.22243418 6.8 2.34510085 5.9255814 3.22243418 5.04186047 4.09976751 5.9255814 3.22243418 6.8ZM9.68110085 9.33953488C8.92976751 9.33953488 8.40243418 9.16744186 8.09910085 8.81860465 7.79576751 8.46976744 7.62776751 7.86046512 7.58576751 6.98139535L7.38043418 1.76744186 8.43976751 1.72093023 8.64510085 6.98139535C8.65910085 7.49302326 8.72443418 7.81860465 8.84576751 7.95813953 8.96243418 8.09302326 9.24243418 8.1627907 9.68110085 8.1627907L9.79310085 8.1627907 9.79310085 9.33953488 9.68110085 9.33953488 9.68110085 9.33953488Z"/>
            <polygon points="9.681 9.34 9.681 8.163 13.204 8.163 13.204 9.34"/>
            <path d="M16.9004342,7.32093023 C16.9284342,7.6372093 17.0124342,7.85581395 17.1384342,7.97674419 C17.2691008,8.09767442 17.4977675,8.15813953 17.8337675,8.15813953 L17.8337675,9.33488372 C17.2037675,9.33488372 16.7277675,9.1627907 16.4011008,8.81395349 C16.0277675,9.1627907 15.5377675,9.33488372 14.9217675,9.33488372 L13.0924342,9.33488372 L13.0924342,8.15813953 L14.9217675,8.15813953 C15.2717675,8.15813953 15.5144342,8.09767442 15.6591008,7.97674419 C15.8037675,7.85581395 15.8644342,7.66511628 15.8411008,7.40930233 L15.7151008,6.01395349 L16.7744342,5.91162791 L16.9004342,7.30697674 L16.9004342,7.31627907 L16.9004342,7.32093023 Z M13.2837675,11.0046512 L14.0677675,10.2232558 L14.8424342,11.0046512 L14.0677675,11.7767442 L13.2837675,11.0046512 Z M15.3511008,11.0046512 L16.1351008,10.2232558 L16.9191008,11.0046512 L16.1351008,11.7767442 L15.3511008,11.0046512 Z"/>
            <path d="M19.9617675 7.32093023C19.9851008 7.8744186 19.8264342 8.34418605 19.4857675 8.74418605 19.1451008 9.13953488 18.6457675 9.33953488 17.9831008 9.33953488L17.6984342 9.33953488 17.6984342 8.1627907 17.9831008 8.1627907C18.3471008 8.1627907 18.5944342 8.08837209 18.7297675 7.93488372 18.8651008 7.78139535 18.9257675 7.59534884 18.9164342 7.36744186L18.7017675 1.76744186 19.7471008 1.71162791 19.9617675 7.32093023 19.9617675 7.32093023ZM28.2917675 8.15813953 28.5064342 8.15813953 28.5064342 9.33488372 28.2917675 9.33488372C27.8997675 9.33488372 27.5311008 9.24186047 27.1951008 9.05581395 26.8591008 8.86976744 26.5884342 8.61860465 26.3831008 8.30232558 25.8137675 8.4 25.4031008 8.46511628 25.1557675 8.49302326 24.7544342 8.55348837 24.3531008 8.44651163 23.9517675 8.17209302 23.5504342 7.89767442 23.2797675 7.54883721 23.1444342 7.13488372 22.9717675 6.62325581 23.0044342 6.11162791 23.2517675 5.60930233 23.4991008 5.10697674 23.8771008 4.77209302 24.3811008 4.60465116L25.9864342 4.06976744 25.9864342 3.59534884 27.0457675 3.59534884 27.0457675 6.9627907C27.0457675 7.29302326 27.1671008 7.57674419 27.4097675 7.80465116 27.6524342 8.0372093 27.9464342 8.14883721 28.2964342 8.14883721L28.2917675 8.15813953ZM25.0717675 7.33023256 25.9911008 7.18139535C25.9817675 7.13488372 25.9817675 7.06511628 25.9817675 6.96744186L25.9817675 5.23255814 24.7077675 5.6744186C24.4651008 5.74883721 24.2924342 5.88837209 24.1897675 6.08837209 24.0871008 6.28837209 24.0684342 6.49767442 24.1291008 6.71627907 24.1804342 6.90697674 24.3017675 7.06511628 24.4884342 7.19069767 24.6751008 7.32093023 24.8711008 7.3627907 25.0717675 7.3255814L25.0717675 7.33023256Z"/>
            <path d="M28.5531008 11.7627907 27.7784342 10.9906977 28.5531008 10.2093023 29.3371008 10.9906977 28.5531008 11.7627907ZM28.3944342 9.33953488 28.3944342 8.1627907 30.0791008 8.1627907C30.5177675 8.1627907 30.8351008 8.06511628 31.0357675 7.8744186 31.2317675 7.68372093 31.2691008 7.34418605 31.1384342 6.86046512L30.6951008 5.17209302 31.7171008 4.87906977 32.1697675 6.62325581C32.3984342 7.45581395 32.2957675 8.11627907 31.8664342 8.60465116 31.4371008 9.09767442 30.8397675 9.33953488 30.0744342 9.33953488L28.3897675 9.33953488 28.3944342 9.33953488ZM30.6344342 11.7627907 29.8504342 10.9906977 30.6344342 10.2093023 31.4184342 10.9906977 30.6344342 11.7627907ZM35.6371008 9.33953488C34.8857675 9.33953488 34.3584342 9.16744186 34.0551008 8.81860465 33.7517675 8.46976744 33.5837675 7.86046512 33.5417675 6.98139535L33.3364342 1.76744186 34.3957675 1.72093023 34.6011008 6.98139535C34.6151008 7.49302326 34.6804342 7.81860465 34.8017675 7.95813953 34.9184342 8.09302326 35.1984342 8.1627907 35.6371008 8.1627907L35.7491008 8.1627907 35.7491008 9.33953488 35.6371008 9.33953488 35.6371008 9.33953488Z"/>
            <path d="M39.9584342 5.22325581C40.4811008 5.50232558 40.8077675 5.98139535 40.9291008 6.65116279 41.0551008 7.3255814 40.9431008 7.99069767 40.5931008 8.65581395 40.4204342 8.97209302 40.1637675 9.19069767 39.8324342 9.31162791 39.5011008 9.43255814 39.1557675 9.40930233 38.7964342 9.24186047L37.3964342 8.53023256C36.9811008 9.06511628 36.4351008 9.33488372 35.7584342 9.33488372L35.6324342 9.33488372 35.6324342 8.15813953 35.7584342 8.15813953C36.2437675 8.15813953 36.5844342 7.96744186 36.7804342 7.58139535L37.6204342 5.98139535C37.8537675 5.53488372 38.1944342 5.2372093 38.6377675 5.09302326 39.0811008 4.94883721 39.5197675 4.99069767 39.9491008 5.22325581L39.9584342 5.22325581ZM39.7531008 8.18139535C39.9631008 7.78139535 40.0611008 7.39534884 40.0377675 7.01860465 40.0144342 6.64651163 39.8651008 6.38139535 39.5851008 6.23255814 39.3751008 6.12093023 39.1557675 6.10697674 38.9317675 6.2 38.7077675 6.29302326 38.5304342 6.46976744 38.3904342 6.73023256L37.9564342 7.56744186 39.3797675 8.29302326C39.5477675 8.37674419 39.6737675 8.33953488 39.7531008 8.18139535L39.7531008 8.18139535ZM44.5971008 8.15813953 44.6764342 8.15813953 44.6764342 9.33488372 44.5971008 9.33488372C44.4057675 9.33488372 44.2517675 9.32093023 44.1304342 9.28837209 44.1677675 9.65116279 44.1444342 9.97674419 44.0557675 10.2604651 43.9671008 10.5488372 43.8457675 10.7860465 43.6917675 10.9813953 43.5377675 11.172093 43.3137675 11.3534884 43.0197675 11.5116279 42.7257675 11.6744186 42.4364342 11.8046512 42.1517675 11.9023256 41.8624342 12 41.5031008 12.1116279 41.0691008 12.2325581L40.7984342 11.0976744C41.6944342 10.855814 42.2544342 10.6697674 42.4831008 10.544186 42.9171008 10.3116279 43.1177675 9.94883721 43.0991008 9.45581395 43.0897675 9.40465116 43.0851008 9.34418605 43.0757675 9.2744186L42.6231008 6.00930233 43.6684342 5.85116279 43.8177675 6.98604651C43.9017675 7.47906977 43.9904342 7.79534884 44.0884342 7.93953488 44.1864342 8.08372093 44.3591008 8.15348837 44.6017675 8.15348837L44.5971008 8.15813953Z"/>
            <polygon points="44.564 9.34 44.564 8.163 48.088 8.163 48.088 9.34"/>
            <path d="M55.9697675 6.5627907C56.1984342 7.39534884 56.1144342 8.06511628 55.7271008 8.57674419 55.3351008 9.08837209 54.7937675 9.33953488 54.0937675 9.33953488 53.5244342 9.33953488 53.0671008 9.14418605 52.7171008 8.74883721 52.3764342 9.13953488 51.9004342 9.33953488 51.2937675 9.33953488 50.7337675 9.33953488 50.2764342 9.13953488 49.9311008 8.73953488 49.5811008 9.13953488 49.1097675 9.33953488 48.5077675 9.33953488L47.9757675 9.33953488 47.9757675 8.1627907 48.5077675 8.1627907C49.1144342 8.1627907 49.4271008 7.91627907 49.4411008 7.42790698L49.4411008 5.95348837 50.4304342 5.95348837 50.4304342 7.42790698C50.4444342 7.92093023 50.7337675 8.1627907 51.2937675 8.1627907 51.6671008 8.1627907 51.9144342 8.08837209 52.0404342 7.93488372 52.1664342 7.78139535 52.2271008 7.59069767 52.2271008 7.35813953L52.2271008 5.95348837 53.2164342 5.95348837 53.2164342 7.42790698C53.2164342 7.92093023 53.5104342 8.1627907 54.0937675 8.1627907 54.8964342 8.1627907 55.1811008 7.73023256 54.9477675 6.86046512L54.4951008 5.17209302 55.5171008 4.87906977 55.9697675 6.56744186 55.9697675 6.5627907ZM68.6304342 7.32093023C68.6584342 7.6372093 68.7424342 7.85581395 68.8684342 7.97674419 68.9991008 8.09767442 69.2277675 8.15813953 69.5637675 8.15813953L69.5637675 9.33488372C68.9337675 9.33488372 68.4577675 9.1627907 68.1311008 8.81395349 67.7577675 9.1627907 67.2677675 9.33488372 66.6517675 9.33488372L63.9124342 9.33488372C62.6524342 9.33488372 61.8077675 9.31627907 61.3691008 9.2744186 60.9351008 9.23255814 60.5664342 9.15348837 60.2724342 9.03255814 59.8011008 8.82325581 59.4791008 8.49302326 59.3064342 8.04651163 59.1337675 7.6 59.1197675 7.09302326 59.2737675 6.51627907L59.6937675 4.89302326 60.7064342 5.18604651 60.2724342 6.85116279C60.1977675 7.14418605 60.1931008 7.37674419 60.2537675 7.54883721 60.3191008 7.72093023 60.4637675 7.85116279 60.6924342 7.94883721 60.8744342 8.02325581 61.1544342 8.07906977 61.5417675 8.10697674 61.9244342 8.13488372 62.7131008 8.15348837 63.9124342 8.15348837L66.6517675 8.15348837C66.9924342 8.15348837 67.2351008 8.09302326 67.3844342 7.97674419 67.5337675 7.86046512 67.5991008 7.6744186 67.5851008 7.42790698L67.5851008 7.40465116 67.4591008 6.00930233 68.5044342 5.90697674 68.6304342 7.30232558 68.6304342 7.31162791 68.6304342 7.32093023ZM63.7071008 4.78139535 62.9231008 5.55348837 62.1391008 4.78139535 62.9231008 4 63.7071008 4.78139535ZM65.7744342 4.78139535 64.9904342 5.55348837 64.2157675 4.78139535 64.9904342 4 65.7744342 4.78139535Z"/>
            <path d="M69.6104342 11.7627907 68.8357675 10.9906977 69.6104342 10.2093023 70.3944342 10.9906977 69.6104342 11.7627907ZM69.4517675 9.33953488 69.4517675 8.1627907 71.1364342 8.1627907C71.5751008 8.1627907 71.8924342 8.06511628 72.0931008 7.8744186 72.2891008 7.68372093 72.3264342 7.34418605 72.1957675 6.86046512L71.7524342 5.17209302 72.7744342 4.87906977 73.2271008 6.62325581C73.4557675 7.45581395 73.3531008 8.11627907 72.9237675 8.60465116 72.4944342 9.09767442 71.8971008 9.33953488 71.1317675 9.33953488L69.4471008 9.33953488 69.4517675 9.33953488ZM71.6917675 11.7627907 70.9077675 10.9906977 71.6917675 10.2093023 72.4757675 10.9906977 71.6917675 11.7627907ZM77.4224342 8.15813953 77.5017675 8.15813953 77.5017675 9.33488372 77.4224342 9.33488372C77.2311008 9.33488372 77.0771008 9.32093023 76.9557675 9.28837209 76.9931008 9.65116279 76.9697675 9.97674419 76.8811008 10.2604651 76.7924342 10.5488372 76.6711008 10.7860465 76.5171008 10.9813953 76.3631008 11.172093 76.1391008 11.3534884 75.8451008 11.5116279 75.5511008 11.6744186 75.2617675 11.8046512 74.9771008 11.9023256 74.6877675 12 74.3284342 12.1116279 73.8944342 12.2325581L73.6237675 11.0976744C74.5197675 10.855814 75.0797675 10.6697674 75.3084342 10.544186 75.7424342 10.3116279 75.9431008 9.94883721 75.9244342 9.45581395 75.9151008 9.40465116 75.9104342 9.34418605 75.9011008 9.2744186L75.4484342 6.00930233 76.4937675 5.85116279 76.6431008 6.98604651C76.7271008 7.47906977 76.8157675 7.79534884 76.9137675 7.93953488 77.0117675 8.08372093 77.1844342 8.15348837 77.4271008 8.15348837L77.4224342 8.15813953Z"/>
            <path d="M81.4824342 6.61860465C81.7017675 7.45116279 81.5991008 8.11162791 81.1744342 8.6 80.7497675 9.09302326 80.1524342 9.33488372 79.3871008 9.33488372L77.3851008 9.33488372 77.3851008 8.15813953 79.3871008 8.15813953C80.3344342 8.15813953 80.6891008 7.7255814 80.4464342 6.85581395L80.0031008 5.16744186 81.0157675 4.8744186 81.4824342 6.61860465 81.4824342 6.61860465ZM77.4457675 10.9953488 78.2297675 10.2139535 79.0137675 10.9953488 78.2297675 11.7674419 77.4457675 10.9953488ZM79.5271008 10.9953488 80.3017675 10.2139535 81.0857675 10.9953488 80.3017675 11.7674419 79.5271008 10.9953488ZM88.0531008 8.15813953 88.6084342 8.15813953 88.6084342 9.33488372 88.0531008 9.33488372C87.5537675 9.33488372 87.1431008 9.13953488 86.8257675 8.74418605 86.4477675 9.13488372 85.8644342 9.33488372 85.0851008 9.33488372L84.5531008 9.33488372C83.9744342 9.33488372 83.5171008 9.20930233 83.1717675 8.9627907 82.8264342 8.71162791 82.6397675 8.39069767 82.6071008 8L82.5604342 7.26511628 83.5404342 7.26511628C83.5404342 7.4744186 83.5497675 7.65581395 83.5731008 7.79534884 83.6197675 8.0372093 83.8857675 8.15813953 84.3711008 8.15813953L85.2251008 8.15813953C85.6497675 8.15813953 85.9344342 8.08372093 86.0791008 7.93953488 86.2237675 7.79069767 86.2657675 7.59069767 86.2051008 7.33488372 86.2051008 7.3255814 86.2051008 7.31627907 86.2004342 7.30697674 86.2004342 7.29767442 86.1957675 7.28837209 86.1957675 7.27906977L85.3417675 3.95813953 86.3777675 3.6744186 87.2177675 7.01860465C87.2644342 7.19069767 87.2971008 7.3255814 87.3251008 7.41395349 87.3531008 7.50232558 87.3904342 7.60465116 87.4371008 7.72093023 87.4884342 7.83255814 87.5351008 7.91627907 87.5864342 7.97209302 87.6377675 8.02325581 87.6984342 8.06976744 87.7777675 8.10697674 87.8571008 8.14418605 87.9504342 8.1627907 88.0577675 8.1627907L88.0531008 8.15813953Z"/>
            <path d="M92.8177675 5.22325581C93.3404342 5.50232558 93.6671008 5.98139535 93.7884342 6.65116279 93.9144342 7.3255814 93.8024342 7.99069767 93.4524342 8.65581395 93.2797675 8.97209302 93.0231008 9.19069767 92.6917675 9.31162791 92.3604342 9.43255814 92.0151008 9.40930233 91.6557675 9.24186047L90.2557675 8.53023256C89.8404342 9.06511628 89.2944342 9.33488372 88.6177675 9.33488372L88.4917675 9.33488372 88.4917675 8.15813953 88.6177675 8.15813953C89.1031008 8.15813953 89.4437675 7.96744186 89.6397675 7.58139535L90.4797675 5.98139535C90.7131008 5.53488372 91.0537675 5.2372093 91.4971008 5.09302326 91.9404342 4.94418605 92.3791008 4.99069767 92.8084342 5.22325581L92.8177675 5.22325581ZM92.6124342 8.18139535C92.8224342 7.78139535 92.9204342 7.39534884 92.8971008 7.01860465 92.8737675 6.64651163 92.7244342 6.38139535 92.4444342 6.23255814 92.2344342 6.12093023 92.0151008 6.10697674 91.7911008 6.2 91.5671008 6.29302326 91.3897675 6.46976744 91.2497675 6.73023256L90.8157675 7.56744186 92.2391008 8.29302326C92.4071008 8.37674419 92.5331008 8.33953488 92.6124342 8.18139535L92.6124342 8.18139535ZM99.9297675 5.11162791C100.307768 5.4744186 100.583101 5.82325581 100.746434 6.15348837 100.909768 6.48372093 100.998434 6.85581395 100.998434 7.26511628 100.998434 7.8372093 100.797768 8.33023256 100.396434 8.74418605 99.9951008 9.15813953 99.5144342 9.3627907 98.9544342 9.3627907 98.3944342 9.3627907 97.9137675 9.15813953 97.5124342 8.74418605 97.1111008 8.33023256 96.9104342 7.84186047 96.9104342 7.26511628 96.9104342 6.58604651 97.2137675 5.94883721 97.8204342 5.3627907L98.1937675 4.99069767 97.8297675 4.65116279 98.5671008 3.8 99.9297675 5.11627907 99.9297675 5.11162791ZM98.2264342 7.93953488C98.4224342 8.1255814 98.6651008 8.21860465 98.9544342 8.21860465 99.2437675 8.21860465 99.4817675 8.1255814 99.6777675 7.93953488 99.8691008 7.75348837 99.9671008 7.53023256 99.9671008 7.26511628 99.9671008 7.06046512 99.9157675 6.86511628 99.8177675 6.68372093 99.7197675 6.49767442 99.5237675 6.26046512 99.2251008 5.97674419L98.9637675 5.7255814 98.5904342 6.08837209C98.1517675 6.5255814 97.9324342 6.92093023 97.9324342 7.26511628 97.9324342 7.53023256 98.0304342 7.75348837 98.2264342 7.93953488ZM106.435101 9.15813953C106.472434 9.49767442 106.472434 9.79534884 106.435101 10.0511628 106.397768 10.3069767 106.309101 10.5348837 106.173768 10.7348837 106.038434 10.9348837 105.879768 11.1069767 105.697768 11.2465116 105.515768 11.3860465 105.263768 11.5162791 104.937101 11.6418605 104.610434 11.7674419 104.279101 11.8744186 103.938434 11.9581395 103.597768 12.0465116 103.159101 12.1395349 102.631768 12.2465116L102.417101 11.1023256C102.925768 10.9953488 103.299101 10.9162791 103.541768 10.8651163 103.784434 10.8139535 104.045768 10.744186 104.330434 10.6604651 104.615101 10.5767442 104.806434 10.5023256 104.909101 10.4325581 105.011768 10.3627907 105.114434 10.2697674 105.217101 10.1534884 105.319768 10.0372093 105.380434 9.91162791 105.394434 9.78139535 105.408434 9.65116279 105.403768 9.47906977 105.385101 9.27906977L105.375768 9.22325581C104.904434 9.29767442 104.442434 9.33488372 103.989768 9.33488372 103.443768 9.33488372 102.986434 9.15813953 102.617768 8.80930233 102.249101 8.45581395 102.043768 8.00465116 101.997101 7.44186047 101.945768 6.8 102.104434 6.22325581 102.473101 5.71162791 102.846434 5.2 103.341101 4.93023256 103.961768 4.90232558 104.577768 4.8744186 105.091101 5.08372093 105.501768 5.53023256 105.917101 5.98139535 106.164434 6.57674419 106.248434 7.3255814L106.439768 9.14883721 106.435101 9.15813953ZM103.980434 8.1627907C104.419101 8.1627907 104.843768 8.1255814 105.254434 8.05116279L105.198434 7.48372093C105.151768 7.03255814 105.025768 6.67906977 104.811101 6.4372093 104.601101 6.19069767 104.330434 6.0744186 104.003768 6.09302326 103.686434 6.10232558 103.439101 6.23255814 103.266434 6.48837209 103.093768 6.74418605 103.019101 7.0372093 103.051768 7.3627907 103.065768 7.61395349 103.154434 7.80930233 103.317768 7.95348837 103.481101 8.09767442 103.700434 8.16744186 103.985101 8.16744186L103.980434 8.1627907ZM110.541768 8.15813953 110.621101 8.15813953 110.621101 9.33488372 110.541768 9.33488372C110.350434 9.33488372 110.196434 9.32093023 110.075101 9.28837209 110.112434 9.65116279 110.089101 9.97674419 110.000434 10.2604651 109.911768 10.5488372 109.790434 10.7860465 109.636434 10.9813953 109.482434 11.172093 109.258434 11.3534884 108.964434 11.5116279 108.670434 11.6744186 108.381101 11.8046512 108.096434 11.9023256 107.807101 12 107.447768 12.1116279 107.013768 12.2325581L106.743101 11.0976744C107.639101 10.855814 108.199101 10.6697674 108.427768 10.544186 108.861768 10.3116279 109.062434 9.94883721 109.043768 9.45581395 109.034434 9.40465116 109.029768 9.34418605 109.020434 9.2744186L108.567768 6.00930233 109.613101 5.85116279 109.762434 6.98604651C109.846434 7.47906977 109.935101 7.79534884 110.033101 7.93953488 110.131101 8.08372093 110.303768 8.15348837 110.546434 8.15348837L110.541768 8.15813953Z"/>
            <polygon points="110.504 9.34 110.504 8.163 114.028 8.163 114.028 9.34"/>
            <path d="M115.656434,3.56744186 L117.658434,6.47906977 C117.924434,6.91162791 118.050434,7.33488372 118.045768,7.74883721 C118.036434,8.1627907 117.896434,8.51162791 117.625768,8.79069767 C117.322434,9.15348837 116.883768,9.33488372 116.305101,9.33488372 L113.915768,9.33488372 L113.915768,8.15813953 L116.314434,8.15813953 C116.487101,8.15813953 116.627101,8.12093023 116.725101,8.04651163 C116.860434,7.94883721 116.944434,7.81860465 116.967768,7.65581395 C116.995768,7.49302326 116.958434,7.33488372 116.860434,7.18604651 L114.335768,3.62790698 L114.573768,2.74418605 L118.680434,1.2372093 L119.053768,2.33488372 L115.651768,3.57209302 L115.656434,3.56744186 Z M117.714434,0.734883721 L114.951768,1.73023256 L114.681101,0.995348837 L117.457768,0 L117.719101,0.734883721 L117.714434,0.734883721 Z"/>
        </g>
        <path d="M.137767512 36.9906977.137767512.623255814C.137767512.623255814 4.87910085.623255814 4.87910085.623255814L4.87910085 34.1302326 23.6951008 34.1302326C23.6951008 34.1302326 23.6951008 36.9860465 23.6951008 36.9860465L.137767512 36.9860465.137767512 36.9906977ZM24.4091008.586046512 35.0444342 19.7581395 35.2544342 19.7581395C35.2544342 19.7581395 46.4077675.586046512 46.4077675.586046512L49.2217675.586046512C49.2217675.586046512 36.3977675 22.7209302 36.3977675 22.7209302L36.3977675 36.9534884C36.3977675 36.9534884 31.6564342 36.9534884 31.6564342 36.9534884L31.6564342 23.1860465C31.6564342 23.1860465 19.0424342.586046512 19.0424342.586046512L24.4137675.586046512 24.4091008.586046512ZM51.2564342 26.2883721 46.6691008 36.9906977 44.2704342 36.9906977C44.2704342 36.9906977 59.7031008.623255814 59.7031008.623255814L62.3117675.623255814C62.3117675.623255814 79.3077675 36.9906977 79.3077675 36.9906977L74.2491008 36.9906977C74.2491008 36.9906977 69.2464342 26.2883721 69.2464342 26.2883721L51.2611008 26.2883721 51.2564342 26.2883721ZM59.9597675 6.44186047 59.7497675 6.44186047C59.7497675 6.44186047 52.2457675 23.9488372 52.2457675 23.9488372L68.1451008 23.9488372C68.1451008 23.9488372 59.9597675 6.44186047 59.9597675 6.44186047L59.9597675 6.44186047ZM119.035101.623255814 119.035101 37.6139535C119.035101 37.6139535 118.773768 37.6139535 118.773768 37.6139535L89.8451008 9.19534884 89.6351008 9.19534884 89.6351008 36.9906977C89.6351008 36.9906977 87.2364342 36.9906977 87.2364342 36.9906977L87.2364342-3.55271368e-15C87.2364342-3.55271368e-15 87.4977675-3.55271368e-15 87.4977675-3.55271368e-15L116.426434 28.4186047 116.636434 28.4186047 116.636434.623255814C116.636434.623255814 119.035101.623255814 119.035101.623255814Z" fill="#1b3281"/>
    </g>
</svg>