<svg width="61" height="60" viewBox="0 0 61 60" fill="none" xmlns="http://www.w3.org/2000/svg">
<rect x="1.04688" y="1" width="58.0231" height="58" rx="18.5" stroke="#59595B" stroke-width="2"/>
<path d="M29.9062 17C26.4584 17 23.1518 18.3696 20.7139 20.8076C18.2759 23.2456 16.9063 26.5522 16.9062 30C16.9063 33.4478 18.2759 36.7544 20.7139 39.1924C23.1518 41.6304 26.4584 43 29.9062 43C33.3541 43 36.6607 41.6304 39.0986 39.1924C41.5366 36.7544 42.9062 33.4478 42.9062 30C42.9062 26.5522 41.5366 23.2456 39.0986 20.8076C36.6607 18.3696 33.3541 17 29.9062 17Z" fill="#59595B"/>
<path d="M35.5016 25.1068L33.4442 35.6113C33.4442 35.6113 33.3558 36.0913 32.7604 36.0913C32.4441 36.0913 32.2809 35.9409 32.2809 35.9409L27.8245 32.2429L25.6441 31.1439L22.8458 30.3997C22.8458 30.3997 22.3477 30.2558 22.3477 29.8439C22.3477 29.5006 22.8601 29.337 22.8601 29.337L34.5674 24.6861C34.5668 24.6856 34.9249 24.5571 35.1858 24.5576C35.3462 24.5576 35.5291 24.6263 35.5291 24.8322C35.5291 24.9695 35.5016 25.1068 35.5016 25.1068Z" fill="white"/>
<path d="M29.488 33.622L27.6063 35.475C27.6063 35.475 27.5245 35.5382 27.4152 35.541C27.3773 35.5421 27.3367 35.536 27.2949 35.5173L27.8244 32.2412L29.488 33.622Z" fill="#B0BEC5"/>
<path d="M33.2771 26.8625C33.1843 26.7416 33.0129 26.7197 32.8921 26.8114L25.6445 31.1486C25.6445 31.1486 26.8012 34.3847 26.9775 34.9449C27.1544 35.5056 27.2961 35.5188 27.2961 35.5188L27.8255 32.2427L33.2255 27.2469C33.3463 27.1552 33.3688 26.9833 33.2771 26.8625Z" fill="#CFD8DC"/>
</svg>
