<svg width="61" height="60" viewBox="0 0 61 60" fill="none" xmlns="http://www.w3.org/2000/svg">
  <rect x="1.02344" y="1" width="58.0231" height="58" rx="18.5" stroke="#66869A" stroke-width="2"/>
  <path
    d="M23.3934 41.18C25.3434 42.35 27.6834 43 30.0234 43C37.1734 43 43.0234 37.15 43.0234 30C43.0234 22.85 37.1734 17 30.0234 17C22.8734 17 17.0234 22.85 17.0234 30C17.0234 32.34 17.6734 34.55 18.7134 36.5L17.0234 43L23.3934 41.18Z"
    fill="#66869A"/>
  <path
    d="M35.8738 33.7034C35.8738 33.914 35.827 34.1305 35.7274 34.3411C35.6278 34.5517 35.4989 34.7506 35.329 34.9378C35.0419 35.2537 34.7255 35.4818 34.3681 35.6281C34.0166 35.7743 33.6358 35.8504 33.2257 35.8504C32.6281 35.8504 31.9894 35.71 31.3157 35.4233C30.6419 35.1367 29.9682 34.7506 29.3003 34.265C28.6265 33.7736 27.9879 33.2296 27.3786 32.627C26.7751 32.0186 26.2303 31.381 25.744 30.7141C25.2636 30.0472 24.8769 29.3803 24.5957 28.7192C24.3144 28.0523 24.1738 27.4147 24.1738 26.8063C24.1738 26.4085 24.2441 26.0282 24.3847 25.6772C24.5254 25.3204 24.748 24.9928 25.0585 24.7003C25.4335 24.3317 25.8436 24.1504 26.2771 24.1504C26.4412 24.1504 26.6052 24.1855 26.7517 24.2557C26.904 24.3259 27.0388 24.4312 27.1442 24.5833L28.5035 26.4962C28.6089 26.6425 28.6851 26.777 28.7378 26.9057C28.7906 27.0286 28.8198 27.1514 28.8198 27.2626C28.8198 27.403 28.7788 27.5434 28.6968 27.6779C28.6206 27.8125 28.5093 27.9529 28.3687 28.0933L27.9235 28.5554C27.859 28.6198 27.8297 28.6958 27.8297 28.7894C27.8297 28.8362 27.8356 28.8772 27.8473 28.924C27.8649 28.9708 27.8824 29.0059 27.8942 29.041C27.9996 29.234 28.1812 29.4856 28.439 29.7898C28.7027 30.094 28.9839 30.404 29.2885 30.7141C29.6049 31.0241 29.9096 31.3108 30.2201 31.574C30.5248 31.8314 30.7767 32.0069 30.9759 32.1122C31.0052 32.1239 31.0403 32.1415 31.0813 32.159C31.1282 32.1766 31.1751 32.1824 31.2278 32.1824C31.3274 32.1824 31.4036 32.1473 31.468 32.083L31.9133 31.6442C32.0598 31.498 32.2004 31.3868 32.3351 31.3166C32.4699 31.2347 32.6046 31.1938 32.7511 31.1938C32.8624 31.1938 32.9796 31.2172 33.1085 31.2698C33.2374 31.3225 33.3721 31.3985 33.5186 31.498L35.4579 32.8727C35.6102 32.978 35.7156 33.1009 35.7801 33.2471C35.8387 33.3934 35.8738 33.5396 35.8738 33.7034Z"
    fill="white"/>
</svg>
