<svg width="61" height="60" viewBox="0 0 61 60" fill="none" xmlns="http://www.w3.org/2000/svg">
  <rect x="1" y="1" width="58.0231" height="58" rx="18.5" stroke="#59595B" stroke-width="2"/>
  <path fill-rule="evenodd" clip-rule="evenodd" d="M24.625 40.0001H20.0079V26.1539H24.625V40.0001Z" fill="#59595B"/>
  <path fill-rule="evenodd" clip-rule="evenodd"
        d="M22.3027 23.0773H22.2764C20.8986 23.0773 20.0078 22.0512 20.0078 20.7688C20.0078 19.4593 20.9257 18.4619 22.3297 18.4619C23.7337 18.4619 24.5983 19.4593 24.625 20.7688C24.625 22.0512 23.7337 23.0773 22.3027 23.0773Z"
        fill="#59595B"/>
  <path fill-rule="evenodd" clip-rule="evenodd"
        d="M41.5544 39.9997H37.0173V32.7622C37.0173 30.9443 36.3608 29.7038 34.7183 29.7038C33.4648 29.7038 32.7182 30.54 32.3902 31.3478C32.2703 31.6372 32.2408 32.0406 32.2408 32.4449V40.0001H27.7031C27.7031 40.0001 27.7629 27.7414 27.7031 26.472H32.2408V28.3881C32.843 27.467 33.9215 26.1539 36.3305 26.1539C39.3162 26.1539 41.5545 28.0879 41.5545 32.2431L41.5544 39.9997Z"
        fill="#59595B"/>
</svg>
