<svg width="21" height="21" viewBox="0 0 21 21" fill="none" xmlns="http://www.w3.org/2000/svg">
<path fill-rule="evenodd" clip-rule="evenodd" d="M4.81941 20.1949H0.566406V7.4408H4.81941V20.1949Z" fill="white"/>
<path fill-rule="evenodd" clip-rule="evenodd" d="M2.68026 4.60672H2.6561C1.38691 4.60672 0.566406 3.66153 0.566406 2.4803C0.566406 1.27408 1.4119 0.355347 2.70518 0.355347C3.99845 0.355347 4.79488 1.27408 4.81941 2.4803C4.81941 3.66153 3.99845 4.60672 2.68026 4.60672Z" fill="white"/>
<path fill-rule="evenodd" clip-rule="evenodd" d="M20.4136 20.1946H16.2344V13.5278C16.2344 11.8533 15.6297 10.7106 14.1167 10.7106C12.9621 10.7106 12.2743 11.481 11.9723 12.225C11.8618 12.4916 11.8346 12.8631 11.8346 13.2356V20.1949H7.65479C7.65479 20.1949 7.70987 8.90303 7.65479 7.73374H11.8346V9.49876C12.3893 8.65028 13.3828 7.4408 15.6018 7.4408C18.352 7.4408 20.4138 9.22219 20.4138 13.0497L20.4136 20.1946Z" fill="white"/>
</svg>
